<svg width="1914" height="447" viewBox="0 0 1914 447" fill="none" xmlns="http://www.w3.org/2000/svg">
<g clip-path="url(#clip0_9_568)">
<path d="M0.114258 245.047V253.433" stroke="#2B1A24" stroke-width="33" stroke-linecap="round"/>
<path d="M25.1937 272.602C24.0845 272.463 23.2756 270.67 24.6629 270.272C27.0074 269.6 30.2017 270.668 32.3593 271.404C35.8662 272.6 40.5068 273.587 43.108 276.196" stroke="#2B1A24" stroke-width="33" stroke-linecap="round"/>
<path d="M14.4453 254.631H15.6396" stroke="#2B1A24" stroke-width="33" stroke-linecap="round"/>
<path d="M285.286 9.86005C285.505 5.95005 288.815 3.38009 291.097 0.590088C293.719 2.94009 297.458 5.02004 297.806 8.92004C298.305 14.3701 297.767 19.8501 297.757 25.3201C297.129 52.5401 296.79 79.7701 296.112 106.99C296.062 114.64 295.573 122.3 296.201 129.95C297.876 125.44 298.883 119.55 304.017 117.71C307.147 118 309.679 120.8 309.938 123.9C311.055 130.33 308.852 136.61 307.955 142.91C306.34 157.09 307.047 171.43 307.715 185.65C308.573 183.41 309.261 181.09 309.679 178.73C311.673 166.84 312.889 154.83 314.524 142.89C315.421 138.01 315.68 132.16 319.758 128.74C322.399 126.52 326.148 128.99 327.344 131.66C328.56 134.97 328.201 138.59 328.062 142.05C326.227 161.7 324.373 181.36 322.13 200.98C321.123 206.94 320.695 213.25 317.794 218.66C314.793 223.86 308.214 223.93 303.389 226.4C300.179 227.92 299.102 231.68 298.973 234.98C298.514 242.66 298.504 250.37 298.335 258.06C313.547 257.28 328.769 256.36 343.982 255.61C348.976 255.47 354.19 254.14 359.034 255.9C373.748 262 388.313 268.49 403.146 274.27C398.83 267.27 391.582 263.2 384.574 259.39C392.38 259.78 399.896 262.04 406.974 265.26C404.791 258.76 401.003 253.02 396.647 247.79C400.285 248.85 404.063 250.06 406.855 252.79C410.543 256.04 412.597 260.61 414.491 265.05C416.853 260.6 419.575 256.17 423.642 253.08C427.231 250.06 431.687 248.42 436.113 247.09C431.767 251.98 427.61 257.15 425.187 263.31C433.172 259.93 442.084 258.82 450.478 261.37C445.204 263.45 439.572 264.91 434.907 268.28C430.211 271.34 426.533 275.65 423.403 280.25C440.459 281.82 457.556 282.83 474.612 284.39C481.949 285.13 489.137 283 496.364 282.12C502.006 281.05 507.908 281.03 513.321 279C518.495 276.28 523.26 272.83 528.304 269.88C532.142 267.71 535.641 264.25 540.276 264.11C547.025 263.81 553.784 264.14 560.533 263.89C558.699 259.63 556.416 255.48 553.016 252.28C548.501 247.5 542.539 244.61 536.967 241.33C545.769 241.7 554.352 244.12 562.208 248.08C559.915 240.61 555.588 234.09 550.674 228.11C560.712 229.73 567.501 238.33 570.751 247.45C575.616 237.61 584.368 229.46 595.384 227.43C590.22 232.82 585.644 238.83 582.943 245.87C591.964 241.74 602.252 240.63 611.812 243.52C606.1 245.7 600.059 247.26 594.965 250.77C589.542 254.17 585.116 258.93 581.567 264.23C588.086 265.03 594.656 265.35 601.175 266.15C603.548 266.35 605.97 266.79 608.343 266.37C614.673 258.93 619.259 250.1 625.609 242.69C632.866 240.81 640.612 241 648.058 239.91C660.589 239.12 672.532 234.87 684.883 233.05C697.942 233.69 710.622 238.07 723.761 238.19C730.679 238.28 737.598 238.73 744.526 238.91C744.038 230.53 744.775 222.09 743.938 213.75C743.539 209.65 738.934 208.89 735.793 207.79C729.653 206.18 723.911 202.81 720.033 197.7C713.653 189.71 712.686 179.16 710.273 169.58C706.844 152.8 703.156 136.05 700.893 119.06C700.325 114.55 699.497 109.43 702.259 105.43C703.993 102.6 708.15 101.81 710.752 103.92C714.48 106.91 717.072 111.03 720.272 114.55C719.734 106.46 718.777 98.4101 718.049 90.3401C717.88 86.1401 717.032 81.4201 719.435 77.6901C721.618 74.3301 726.971 74.1201 729.413 77.3201C734.597 83.3101 735.963 91.4301 737.847 98.8801C741.864 117.3 742.662 136.23 742.782 155.02C743.091 165.67 743.569 176.71 748.085 186.54C750.757 159.24 750.109 131.77 750.766 104.38C751.514 80.6001 752.391 56.8301 753.518 33.0701C753.927 25.7101 753.368 17.9701 756.708 11.1601C758.442 9.05003 760.626 6.76006 763.606 6.87006C766.906 6.57006 769.298 9.23008 770.913 11.7701C773.366 19.6001 772.558 27.9001 772.917 35.9801C773.575 62.2601 773.296 88.5701 774.233 114.84C777.881 112.55 781.43 109.83 783.454 105.92C788.159 97.7701 787.97 88.1101 789.216 79.0701C789.465 75.7101 791.638 71.8101 795.466 72.0001C800.73 71.6501 803.471 77.4901 803.591 82.0101C803.83 93.0401 800.82 104.24 794.789 113.51C790.522 120.72 782.776 124.29 775.838 128.32C775.938 148.86 775.778 169.4 775.878 189.94C781.071 184.95 784.102 178.2 786.036 171.36C788.827 161.47 786.554 151.04 788.379 141.02C789.196 136.31 793.413 132.06 798.437 132.69C802.275 132.51 805.585 135.55 806.043 139.32C807.14 146.82 806.432 154.45 805.824 161.97C804.917 172.33 803.272 182.8 798.945 192.34C796.852 196.93 794.22 201.52 790.093 204.56C786.873 206.93 782.716 207.14 779.167 208.76C777.682 210.41 777.822 212.82 777.533 214.89C777.024 223.2 776.237 231.49 775.509 239.78C798.477 239.97 821.445 240.37 844.403 240.79C849.656 241.04 854.441 243.44 859.376 245.02C871.229 249.1 883.082 253.18 894.935 257.27C900.218 259.05 905.422 261.48 911.074 261.79C917.633 262.13 924.173 262.69 930.742 263.02C919.896 253.1 905.133 249.83 891.904 244.4C907.665 244.77 923.425 247.08 938.438 252C936.026 246.11 932.317 240.76 927.393 236.72C921.541 231.51 914.384 228.23 907.435 224.82C918.929 224.86 930.154 228.03 940.611 232.64C937.71 223.44 931.988 215.57 925.349 208.72C930.194 209.65 935.039 211.14 939.006 214.2C945.267 218.6 949.234 225.39 952.175 232.32C954.388 228.6 956.591 224.81 959.542 221.62C966.231 214.26 975.472 209.6 985.14 207.67C978.154 213.96 971.893 221.26 968.464 230.15C972.89 228.56 977.296 226.84 981.952 226.05C990.33 224.41 998.96 225.3 1007.17 227.4C1001.1 229.07 994.92 230.51 989.24 233.31C981.653 236.83 974.894 242.04 969.481 248.43C974.585 246.98 979.669 245.31 984.97 244.82C997.6 243.34 1010.41 245.85 1022.08 250.71C1006.45 251.04 989.87 254.13 977.725 264.7C996.43 261.64 1015.08 258.26 1033.76 255.08C1053.86 252.24 1074.02 249.82 1094.14 247.05C1090.46 235.99 1090.37 224.18 1091.96 212.74C1084.95 209.86 1077.2 208.23 1071.17 203.42C1065.06 198.32 1061.97 189.88 1062.91 182.03C1064.16 176.87 1070.23 176.17 1074.43 174.66C1073.43 169.46 1071.85 164.33 1071.67 159.01C1071.49 156.4 1072.48 153.64 1074.66 152.1C1079.29 148.86 1086.47 150.36 1089.3 155.3C1091.66 159.42 1091.63 164.49 1090.48 168.99C1089.61 173.1 1087.29 176.78 1086.75 180.97C1087.44 183.24 1089.67 184.61 1091.17 186.38C1095.21 190.26 1097.25 195.6 1099.39 200.66C1102.89 198.34 1106.42 195.89 1110.54 194.82C1114.78 193.58 1119.24 194.39 1123.51 195.09C1123.35 186.72 1122.85 178.34 1123.4 169.99C1123.64 165.07 1125.36 159.99 1129.16 156.69C1134.96 151.5 1145.25 150.48 1150.82 156.54C1155.39 161.77 1153.77 169.2 1154.98 175.53C1159.68 173.33 1164.72 168.46 1170.21 171.07C1178.13 174.67 1178.56 187.45 1170.93 191.61C1164.56 194.65 1157.34 192.23 1150.95 190.49C1148.63 189.97 1145.41 188.9 1143.91 191.46C1141.08 195.63 1138.44 200.03 1134.27 203.04C1137.26 211.19 1141.36 219.22 1141.66 228.08C1142.23 235.82 1139.8 243.3 1137.09 250.43C1142.81 250.97 1148.55 251.26 1154.29 251.73C1161.89 252.2 1168.99 255.22 1176.29 257.1C1189.9 261.1 1203.59 264.83 1217.14 268.98C1220.27 270.01 1223.59 269.51 1226.79 269.1C1225.94 265.69 1224.96 262.18 1222.69 259.42C1219.12 254.6 1213.69 251.85 1208.68 248.85C1215.17 249.19 1221.45 251.06 1227.34 253.78C1225.41 248.46 1222.34 243.7 1218.9 239.26C1221.48 240.16 1224.27 240.87 1226.44 242.68C1229.79 245.4 1231.71 249.41 1233.65 253.18C1235.71 249.76 1237.83 246.27 1241 243.75C1244.02 241.16 1247.83 239.81 1251.55 238.57C1248.03 242.71 1244.68 247.04 1242.49 252.05C1249.21 249.37 1256.59 248.46 1263.65 250.42C1258.74 252.4 1253.53 253.92 1249.29 257.22C1245.84 259.74 1243.23 263.17 1240.81 266.64C1252.21 264.99 1263.56 262.91 1274.98 261.28C1278.51 260.83 1281.99 259.9 1285.16 258.23C1301.29 250 1317.63 242.17 1333.74 233.88C1339 230.95 1345.23 232.16 1350.98 231.78C1350.73 224.72 1351.56 217.51 1350.21 210.56C1347.79 207.02 1342.78 207.3 1339.18 205.64C1330.4 202.5 1323.76 194.74 1321 185.92C1317.63 175.23 1315.16 164.27 1312.75 153.33C1309.93 139.96 1306.33 126.66 1305.65 112.96C1305.26 105.91 1309.02 98.8401 1315.1 95.3001C1317.76 93.6301 1321.57 93.6201 1323.87 95.9401C1327.31 99.3301 1328.9 104.23 1328.93 109C1329.09 122.87 1331.76 136.53 1334.52 150.07C1335.88 156.58 1337.02 163.14 1338.27 169.67C1339.16 173.96 1340.1 178.46 1342.84 182.01C1344.87 184.73 1347.8 186.55 1350.61 188.41C1351.12 174.54 1352.85 160.78 1354.32 146.99C1355.78 128.37 1355.05 109.68 1355.5 91.0301C1355.89 67.9501 1358.6 45.0001 1360.58 22.0301C1361.01 17.7901 1360.99 13.2701 1363.09 9.43005C1364.82 6.15005 1369.56 4.81003 1372.58 7.16003C1377.72 10.6101 1378.11 17.3301 1378.27 22.9501C1379.64 63.0701 1382.13 103.17 1382.44 143.32C1382.38 151.27 1383.07 159.2 1384.38 167.04C1386.49 164.62 1388.88 162.17 1389.59 158.91C1390.92 153.42 1391.33 147.75 1392.39 142.2C1394.02 131.84 1395.61 121.46 1397.26 111.1C1398.27 105.21 1398.63 98.7801 1402.46 93.9001C1404.03 91.7301 1406.71 89.7701 1409.52 90.6901C1412.53 91.6001 1413 95.1901 1413.39 97.8701C1414.5 108.74 1412.96 119.64 1411.67 130.43C1414.29 129.89 1416.91 129.29 1419.5 128.58C1422.82 129.21 1426.6 131.14 1426.67 135.04C1427.18 143.88 1425.75 152.76 1424.02 161.42C1420.91 176.13 1412.5 189.96 1399.83 198.25C1396.38 200.79 1391.44 203.03 1391.31 207.98C1390.59 215.32 1390.63 222.73 1389.99 230.09C1395.86 229.99 1401.82 229.41 1407.63 230.66C1414.03 232.01 1420.46 233.27 1426.89 234.54C1436.33 236.5 1445.98 236.98 1455.53 238.24C1460.53 238.9 1465.66 239.57 1470.68 238.51C1482.82 236.08 1495.04 234 1507.23 231.73C1515 230.27 1522.59 227.97 1530.3 226.19C1537.47 224.57 1544.16 221.45 1550.98 218.78C1555.24 217.1 1559.44 214.79 1564.16 214.76C1576.27 214.6 1588.39 215.17 1600.52 214.9C1595.85 210.06 1589.79 207.1 1584.11 203.68C1593.3 203.81 1602.08 206.75 1610.34 210.56C1607.88 202.68 1603.5 195.6 1597.95 189.56C1601.79 190.43 1605.72 191.56 1608.78 194.2C1614.01 198.19 1617.09 204.21 1619.48 210.21C1621.76 206.08 1624.1 201.91 1627.48 198.57C1632.35 193.52 1638.8 190.3 1645.56 188.65C1640.2 194.47 1635.19 200.76 1632.46 208.29C1642.09 204.12 1653.16 202.3 1663.22 206.14C1656.06 207.97 1648.97 210.41 1643 214.89C1662.21 215.59 1681.46 215.06 1700.7 215.43C1704.4 215.53 1708.03 216.36 1711.63 217.23C1730.46 221.66 1749.39 225.62 1768.21 230.04C1771.31 224.73 1776.04 220.78 1780.8 217.03C1777.66 214.73 1774.49 212.44 1771.87 209.55C1766.76 204.01 1763.44 197.17 1759.5 190.82C1751.69 193.67 1743.86 198.82 1735.24 197.44C1726 195.58 1722.7 183.67 1726.66 175.97C1728.15 173.2 1731.53 172.33 1734.48 172.67C1742.66 173.5 1750.22 177.22 1757.08 181.6C1758.16 178.64 1760.67 175.04 1758.41 172.03C1755.39 168.31 1750.31 166 1749.25 160.92C1748.01 156.13 1755.3 151.98 1758.58 155.87C1761.23 159.08 1762.94 162.95 1765.21 166.43C1769.31 165.39 1773.44 164.41 1777.58 163.46C1776.18 160.97 1774.66 158.54 1773.44 155.96C1771.8 152.75 1772.75 149 1771.84 145.63C1769.65 141.39 1765.18 138.89 1763.03 134.62C1762.32 132.97 1761.95 130.85 1762.92 129.26C1764.6 127.83 1767.54 127.52 1769.11 129.31C1771.63 131.79 1773.48 134.85 1775.56 137.7C1776.91 136.72 1778.27 135.74 1779.65 134.77C1776.92 129.65 1773.26 124.11 1774.65 118.03C1775.96 113.68 1783.01 113.15 1784.84 117.39C1786.24 121.61 1785 126.12 1784.66 130.43C1786.78 129.8 1790 130.2 1790.95 127.63C1792.43 121.82 1790.16 115.25 1793.2 109.83C1796.35 105.47 1803.33 109.16 1802.9 114.1C1802.23 119.02 1799.36 123.27 1797.41 127.75C1802.74 131.7 1808.36 135.74 1811.67 141.67C1814.04 145.75 1814.13 151.17 1811.56 155.19C1808.13 160.71 1802.37 164.07 1796.99 167.38C1800.77 174.27 1806.03 180.51 1807.97 188.28C1809.5 194.77 1809.23 201.91 1806.37 208C1804.31 212.32 1800.18 214.96 1796.33 217.49C1799.37 221.19 1802.45 224.87 1805.6 228.48C1807.84 222.19 1809.1 215.33 1813.22 209.89C1817.03 204.87 1822.46 200.94 1828.61 199.39C1833.29 198.19 1838.52 199.91 1841.55 203.71C1846.45 209.76 1847.94 218.88 1844.09 225.84C1842.16 229.34 1838.8 231.66 1835.74 234.07C1861.86 232.72 1887.92 230.39 1914 228.35V446H0V269.98C5.7719 267.5 11.484 264.14 17.9138 263.91C28.3312 263.46 38.7386 263.02 49.1559 262.61C42.0681 257.9 33.814 255.61 26.1779 252.02C38.0108 251.97 49.6842 254.49 60.8792 258.16C59.0748 254.12 57.0312 250.11 53.8612 246.97C49.2755 242.05 43.2544 238.92 37.4426 235.74C46.2052 235.7 54.6288 238.45 62.4542 242.2C60.1813 234.77 56.0044 228.16 50.8107 222.46C61.1683 223.62 67.8274 232.77 71.1868 241.89C75.6329 231.68 84.824 223.76 95.79 221.54C90.586 226.95 85.98 233 83.279 240.07C92.281 236.09 102.738 234.32 112.138 238.07C101.273 240.56 90.905 246.11 84.126 255.19C96.657 250.43 111.162 250.82 123.064 257.19C111.67 257.69 99.697 260.12 90.995 268.05C99.957 269.82 109.287 269.64 118 272.66C134.807 278.17 151.764 283.21 168.552 288.8C171.173 289.58 174.124 290.86 176.726 289.29C192.068 281.65 207.529 274.25 222.901 266.67C227.776 264.31 232.581 261.09 238.203 261.17C246.856 260.96 255.479 260.33 264.122 259.93C263.843 253.95 263.703 247.97 263.404 242C263.165 239.61 263.195 236.7 261.072 235.12C257.882 232.63 253.675 231.42 251.232 228.01C247.873 223.52 247.265 217.72 246.786 212.31C245.67 198.54 244.852 184.75 243.995 170.97C243.945 167.3 243.547 163.36 245.161 159.95C246.527 157.58 249.687 158.61 251.561 159.71C254.343 161.06 255.659 164.07 256.237 166.96C258.28 176.52 258.669 186.49 262.138 195.72C262.567 186.8 261.191 177.93 261.191 169.03C261.171 161.06 261.002 153.09 260.932 145.12C260.822 117.41 260.473 89.6901 260.653 61.9801C260.812 58.3101 261.351 54.4001 263.624 51.3901C265.039 49.3201 268.369 49.2501 269.794 51.3601C272.994 55.4801 273.433 60.9501 273.443 65.9801C273.253 76.9701 273.253 87.9601 272.625 98.9401C271.619 114.25 272.984 129.62 275.147 144.78C275.885 149.86 276.423 155.01 278.038 159.92C278.577 154.97 278.587 149.99 278.696 145.02C279.723 107.11 279.693 69.1101 283.352 31.3301C284.119 24.1801 284.588 17.0101 285.286 9.86005Z" fill="#2B1A24" stroke="#2B1A24" stroke-width="0.5"/>
</g>
<defs>
<clipPath id="clip0_9_568">
<rect width="1914" height="447" fill="white"/>
</clipPath>
</defs>
</svg>
