<svg width="1920" height="850" viewBox="0 0 1920 850" fill="none" xmlns="http://www.w3.org/2000/svg">
<mask id="mask0_8_551" style="mask-type:luminance" maskUnits="userSpaceOnUse" x="0" y="0" width="1920" height="467">
<path d="M1920 0H0V467H1920V0Z" fill="white"/>
</mask>
<g mask="url(#mask0_8_551)">
<path d="M926.55 8.50005C932.35 5.23005 937.97 0.390052 945.06 0.840052C953.71 0.970052 962.38 0.720055 971.04 0.890055C973.98 0.720055 976.5 2.52006 978.01 4.94006C982.7 11.9401 986.7 19.4001 991.83 26.1101C993.47 31.5601 993 37.3201 993.01 42.9401C992.98 57.5501 993.01 72.1601 993 86.7701C993.18 93.5401 992.58 100.34 993.26 107.08C994.94 114.65 1005.03 116.49 1006.54 124.14C1007.12 130.31 1006.52 136.52 1006.76 142.7C1006.94 152.13 1006.41 161.58 1006.9 171C1007.43 177.93 1016.2 179.34 1018.49 185.33C1019.34 188.81 1018.98 192.44 1019.03 195.99C1018.97 217.37 1019.02 238.75 1019 260.14C1018.99 269.42 1019.03 278.7 1018.95 287.98C1018.99 291.11 1018.91 294.53 1020.85 297.19C1025.62 303.95 1032.31 309.17 1036.85 316.11C1039.57 322.41 1036.93 329.56 1038.64 336.09C1039.78 339.48 1042.45 342.03 1044.73 344.69C1041.14 343.44 1038.84 340.27 1036.43 337.55C1033.84 334.58 1031.49 331.18 1030.93 327.2C1030.37 324.53 1030.6 321.47 1028.59 319.36C1023.14 313.26 1017 307.84 1010.9 302.42C1011.86 302.41 1012.84 302.41 1013.83 302.41C1011.23 298.77 1009.65 294.53 1007.13 290.86C1001.46 285.63 993.51 284.61 986.38 282.61C980.71 280.74 974.76 279.61 969.46 276.79C977.5 275.71 985.62 277.63 993.64 276.12C986.35 272.04 977.94 270.92 970.27 267.77C959.25 264.47 948.36 260.75 937.68 256.47C932.89 254.51 927.88 253.16 922.91 251.77C923.27 251.46 923.98 250.84 924.34 250.54C928.21 250.74 932.11 250.81 935.97 250.37C940.14 249.85 944.26 250.84 948.4 251.25C937.19 244.86 924.68 241.02 911.97 239.11C906.05 239.09 902.04 244.89 900.88 250.19C902.7 250.61 904.55 251.04 906.39 251.45C903.77 253.94 901.2 256.71 900.44 260.37C899.53 264.3 897.55 267.83 894.74 270.71C891.48 273.83 891.56 279.09 887.76 281.77C882.27 286.69 874.09 289.31 867.14 285.93C863.52 283.74 859.88 281.17 857.49 277.63C853.97 269.26 850.56 260.82 848.15 252.04C849.44 250.94 850.76 249.86 852.07 248.77C851.31 243.14 849.81 237.65 848.76 232.08C848.01 228.36 850.3 224.68 849 221.01C846.86 213.75 845.05 206.34 844.87 198.73C845.85 198.62 846.85 198.51 847.85 198.4C846.67 192.97 846.14 187.42 844.85 182.02C844.03 178.55 841.21 176.15 838.85 173.68C839.63 172.33 840.51 171.04 841.28 169.68C843.2 169.61 845.12 169.52 847.04 169.46C846.53 166.55 846.16 163.58 845.09 160.82C844.18 158.25 841.57 156.96 839.37 155.7C832.07 151.97 824.47 148.81 816.62 146.44C813.2 145.42 809.88 144.1 806.69 142.49C812.34 141.38 818.08 143.14 823.71 141.86C824.41 142.31 825.15 142.76 825.9 143.19C830.98 142.35 836.11 141.95 841.25 141.6C840.36 139.16 839.76 136.1 837.02 135.09C829.96 132.04 822.81 129.18 815.69 126.27C806.96 122.79 797.77 120.6 789.16 116.82C784.41 114.64 779.09 115.06 774.01 115.08C769.79 115.21 765.5 114.65 761.33 115.48C758.66 116.97 758.03 120.39 757.36 123.13C756.44 129.09 755.08 135.33 756.82 141.27C759.63 151.39 759.23 162.03 761.37 172.27C761.96 174.82 760.3 177.09 759.17 179.21C756.26 183.88 753.54 188.74 752.11 194.08C751.16 197.34 752.83 200.58 752.75 203.86C752.63 210.01 751.13 216.02 750.14 222.06C749.51 225.51 751.02 228.91 750.51 232.36C749.79 236.93 748.22 241.35 748.02 246C747.78 249.34 748.5 252.65 748.27 255.99C747.86 261.61 746.22 267.06 745.59 272.66C744.97 275.47 748.49 277.14 747.93 279.98C747.52 284.76 746.6 289.53 745.21 294.12C740.95 303.91 744.45 314.82 742.83 325.03C742.49 326.44 741.82 327.73 741.23 329.05C741.38 286.7 741.17 244.35 741.2 202C741.29 196.79 740.76 191.53 741.53 186.36C742.7 180.64 749.32 178.59 751.53 173.46C752.54 169.62 752.04 165.59 752.11 161.68C752.09 143.42 752.1 125.17 752.11 106.92C751.9 102.92 753.92 99.3101 756.65 96.5601C762.63 90.2201 768.26 83.5501 774.25 77.2301C778.53 72.5301 785.32 75.2601 790.71 73.7101C797.35 70.3701 797.96 60.3001 805.59 58.3801C814.04 57.6301 822.56 58.3701 831.05 58.0401C835.06 58.1201 840.09 57.4301 842.83 61.1201C846.07 65.4401 849.44 70.2901 849.29 75.9501C849.22 97.6401 849.36 119.33 849.21 141.02C849.35 143.01 849.04 145.66 851 146.9C853.1 147.7 855.38 147.87 857.52 148.63C859.01 149.88 858.87 152.08 859.35 153.82C858.55 176.54 859.19 199.29 858.99 222.02C859.03 235.7 858.9 249.37 858.94 263.05C858.66 269.47 863.86 273.92 867.3 278.71C869.35 281.07 870.91 284.34 874.03 285.41C876.5 284.16 877.84 281.59 879.42 279.45C882.16 275.2 885.33 271.25 888.04 266.99C890.97 262.58 890.25 257.05 890.31 252.03C890.2 223.22 890.21 194.41 890.28 165.61C890.54 158.22 889.09 150.38 892.35 143.45C894.59 138.54 897.37 133.82 898.64 128.53C898.88 128.93 899.36 129.73 899.6 130.13C900.29 121.43 899.86 112.7 899.91 103.98C899.95 92.9901 899.96 82.0001 900.09 71.0201C900.12 68.6101 899.58 66.2501 899.01 63.9301C898.34 57.6601 898.55 51.3301 898.7 45.0401C898.79 39.8801 901.94 35.6101 904.49 31.3801C907.09 27.3101 909.25 22.9601 912 18.9901C915.56 13.9701 921.54 11.7301 926.55 8.50005Z" fill="#FD4E4D" stroke="#FD4E4D" stroke-width="0.5"/>
<path d="M167.14 72.18C171.73 69.25 176.19 65.15 181.96 65.16C190.3 64.94 198.64 65.28 206.98 65.04C210.66 65.07 215.45 64.59 217.55 68.38C221.18 74.78 225.71 81.34 225.64 89C225.71 99.39 225.5 109.79 225.69 120.18C225.95 129.05 225.23 137.96 226.1 146.8C228.7 151.5 233.88 153.74 237.3 157.69C239.1 159.66 239.15 162.46 239.21 164.97C239.09 191.31 239.26 217.64 239.14 243.98C239.03 246.8 239.98 249.51 241.39 251.93C239.43 250.46 237.63 248.7 236.69 246.39C234.03 240.29 231.69 234.06 228.84 228.04C230.27 227.51 231.71 227 233.16 226.48C232.03 222.78 230.52 217.77 226 217.26C216.39 215.94 206.66 215.5 197.11 213.73C187.56 211.63 178.35 208.19 168.76 206.28C166.03 205.35 163.97 207.57 162.09 209.16C159.62 211.4 156.99 213.47 154.27 215.4C153.51 214.28 152.74 213.17 152.01 212.04C151.74 211.6 151.2 210.72 150.93 210.29C152.22 206.2 155.45 203.26 157.82 199.82C159.81 196.97 160 193.38 159.99 190.03C159.84 155.41 160.07 120.78 159.88 86.16C159.9 83.54 159.7 80.85 160.44 78.31C161.79 75.49 164.72 73.96 167.14 72.18Z" fill="#FD4E4D" stroke="#FD4E4D" stroke-width="0.5"/>
<path d="M1534.32 71.67C1537.85 71.14 1541.43 71.13 1545.01 71.16C1556.03 71.35 1567.07 70.94 1578.09 71.34C1581.54 72.5 1584.55 74.61 1587.39 76.86C1591.35 80.17 1595.84 82.85 1599.57 86.44C1603.17 90.26 1601.63 95.96 1602.1 100.69C1601.87 130.79 1601.99 160.9 1601.86 191C1601.93 193.46 1601.76 196.38 1603.78 198.18C1607.03 201.13 1611.57 202.12 1614.86 205.04C1616.8 206.78 1616.94 209.54 1616.96 211.97C1616.97 219.65 1616.81 227.32 1616.9 235C1616.82 238.03 1617.79 240.96 1619.44 243.49C1621.3 246.31 1623.25 249.08 1625.17 251.88C1626.41 253.54 1627.63 255.55 1629.81 256.08C1636.45 252.23 1640.71 245.34 1647.25 241.35C1651.43 239.9 1655.6 242.47 1659.6 243.5C1663.3 244.71 1667.22 245.02 1671.11 245.04C1674.29 244.79 1678.18 245.17 1680.55 242.56C1682.88 239.75 1684.34 236.35 1686.17 233.21C1688.76 228.48 1692.13 223.72 1691.99 218.07C1692.02 201.03 1692.02 183.98 1691.95 166.94C1691.96 164.2 1692.09 161.19 1694.04 159.05C1697.07 155.42 1700.85 152.52 1704.16 149.15C1707.36 145.96 1711.04 142.43 1715.95 142.75C1727.62 142.68 1739.3 142.83 1750.98 142.74C1758.1 142.31 1763.57 147.37 1769.31 150.72C1773.12 153.26 1777.44 155.14 1780.74 158.39C1782.75 160.75 1782.3 164.15 1782.51 167.04C1782.36 177.03 1782.54 187.02 1782.34 197.02C1782.39 199.56 1782.13 202.26 1783.22 204.64C1784.53 206.81 1787.13 207.62 1789.32 208.67C1792.78 210.02 1796.2 211.85 1799.99 212.15C1802.14 212.31 1803.56 210.43 1804.89 209.03C1807.64 205.74 1810.22 202.32 1812.95 199C1816.77 194.26 1820.34 188.87 1826.08 186.24C1829.38 184.38 1834.3 182.63 1833.97 177.99C1834.12 153.24 1833.48 128.49 1833.04 103.75C1834.07 101.09 1836.04 98.92 1838.62 97.66C1844.41 94.54 1850.05 90.14 1856.97 90.24C1865.63 90.06 1874.3 89.95 1882.97 89.84C1888.09 89.57 1891.74 93.56 1895.46 96.45C1900.51 100.58 1906.87 102.43 1912.78 104.97C1915.19 105.96 1917.59 106.99 1920 108.03V179.48C1908.13 185.92 1896.7 193.34 1883.93 197.92C1889 201.16 1895.06 198.1 1900.6 198.77C1905.8 199.47 1911.02 198.12 1916.21 199.12C1910.09 204.4 1902.46 207.34 1895.79 211.79C1890.36 215.45 1883.61 215.42 1877.39 216.49C1868.97 217.98 1860.38 218.14 1852 219.8C1838.87 222.14 1825.35 222.7 1812.53 226.48C1817.22 226.72 1821.93 226.85 1826.64 226.75C1830.22 226.68 1833.81 227.39 1837.39 226.83C1841.92 226.07 1846.49 227.14 1851.05 226.81C1856.07 226.47 1861.08 227.1 1866.09 227.41C1857.94 229.98 1849.33 229.9 1840.97 231.23C1816.13 234.89 1791.25 238.18 1766.37 241.49C1754.32 242.15 1742.45 244.37 1730.45 245.49C1720.95 246.77 1711.38 247.56 1701.97 249.33C1706.8 252.19 1712.36 250.31 1717.6 250.62C1723.68 250.82 1729.76 250.42 1735.84 250.27C1742.92 251.08 1750.09 251.13 1757.2 250.54C1758.42 250.57 1759.66 250.67 1760.91 250.84C1750.22 254.07 1738.9 253.51 1727.93 255.01C1714.58 256.79 1701.04 257.52 1687.89 260.58C1683.91 261.42 1679.93 262.39 1675.86 262.57C1669.16 262.75 1662.61 261.13 1656.07 259.93C1648.38 258.81 1641.56 263.88 1634 264.12C1629.3 264.26 1624.21 264.48 1620.07 261.9C1615.3 259.05 1610.95 255.53 1607 251.64C1608.13 250.89 1609.25 250.14 1610.41 249.4C1608.9 246.52 1607.96 242.6 1604.43 241.61C1594.58 238.01 1584.01 237.42 1573.83 235.27C1560.25 232.54 1546.57 230.46 1532.86 228.57C1536.91 226.25 1541.65 226.9 1546.11 226.88C1554.86 226.7 1563.71 228.05 1572.37 226.33C1566.22 224.15 1559.65 223.91 1553.32 222.56C1531.48 218.25 1509.25 216.05 1487.67 210.46C1477.05 208.57 1466.58 203.94 1455.63 205.53C1446.44 206.65 1437.17 205.8 1427.96 206.07C1416.6 206.33 1405.2 205.4 1393.88 206.69C1388.04 207.27 1382.15 207.42 1376.38 208.54C1372.64 209.37 1368.99 210.57 1365.22 211.25C1364.77 212.18 1364.35 213.12 1363.94 214.06C1363.49 214.13 1362.59 214.28 1362.15 214.35C1363.84 210.82 1365.1 207.01 1364.98 203.05C1364.94 188.04 1365.01 173.02 1364.93 158C1365 153.88 1364.48 149.37 1366.81 145.73C1368.84 142.51 1371.43 139.7 1373.72 136.67C1375.75 134.12 1377.91 131.08 1381.42 130.61C1388.2 129.64 1395.14 131.24 1401.89 129.92C1407.94 127.47 1408.95 119.27 1415.14 116.91C1425.99 113.25 1437.58 111.89 1448.99 112.99C1456.07 114.11 1458.44 123.53 1465.94 123.75C1475.29 123.99 1484.64 123.65 1494 123.86C1497.86 123.84 1502.33 124.26 1505.39 121.35C1508.69 118.3 1511.83 115.04 1514.7 111.57C1517.95 107.41 1516.79 101.83 1516.98 96.96C1517.17 92.63 1516.2 88.04 1517.78 83.91C1520.52 79.88 1525.3 77.94 1529.1 75.05C1530.81 73.89 1532.5 72.69 1534.32 71.67Z" fill="#FD4E4D" stroke="#FD4E4D" stroke-width="0.5"/>
<path d="M44.59 102.62C49.36 100.98 54.79 101.04 59.63 102.34C63.6 104.92 65.22 109.74 67.71 113.58C70.3 118.23 73.32 122.62 75.86 127.31C78.53 132.08 77.93 137.72 77.98 142.97C77.93 184.13 78.01 225.29 77.95 266.45C78.07 271.24 77.11 276.66 80.3 280.72C84.38 286.27 89 291.41 93.15 296.92C95.5 299.8 97.96 303.45 102.04 303.72C111 304.28 120 303.6 128.97 303.93C133.17 303.8 138.13 304.64 141.47 301.44C145.2 297.88 148.49 293.75 150.82 289.14C153.01 284.06 152.03 278.41 152.16 273.06C152.29 252.72 152.11 232.38 152.01 212.04C152.74 213.17 153.51 214.28 154.27 215.4C156.99 213.47 159.62 211.4 162.09 209.16C163.97 207.57 166.03 205.35 168.76 206.28C178.35 208.19 187.56 211.63 197.11 213.73C206.66 215.5 216.39 215.94 226 217.26C230.52 217.77 232.03 222.78 233.16 226.48C231.71 227 230.27 227.51 228.84 228.04C231.69 234.06 234.03 240.29 236.69 246.39C237.63 248.7 239.43 250.46 241.39 251.93C245.22 254.81 248.81 258.01 252.64 260.9C257.26 265.1 261.98 269.2 266.82 273.16C269.13 275.21 271.85 277.55 271.9 280.92C272.27 291.27 271.79 301.66 272.03 312.02C272.02 314.71 272.86 317.37 274.66 319.39C278.16 323.5 282.21 327.11 285.86 331.09C288.43 333.61 291.1 336.79 294.98 336.98C300.65 337.38 306.33 336.91 312.01 337.13C315.69 337.02 320.02 337.7 322.94 334.91C328.17 330.11 332 324 337.24 319.2C339.26 317.13 342.27 316.95 344.99 316.95C383 317.06 421.02 316.97 459.03 317.01C468.41 317.43 474.33 308.9 482.26 305.43C485.91 304.03 489.02 307.36 491.94 309.06C495.59 311.97 500.62 313.82 502.71 318.24C504.34 326.26 502.25 334.54 503.61 342.6C504.81 346.78 509.56 348.07 512.92 350.09C520.1 353.41 526.69 359.19 535.03 358.99C593.36 359 651.69 358.95 710.01 359.02C712.99 359.01 716.24 358.66 718.49 356.46C722.12 353.11 725.04 349.09 728.38 345.46C732.83 340.13 738.27 335.46 741.23 329.05C741.82 327.73 742.49 326.44 742.83 325.03C744.45 314.82 740.95 303.91 745.21 294.12C746.6 289.53 747.52 284.76 747.93 279.98C748.49 277.14 744.97 275.47 745.59 272.66C746.22 267.06 747.86 261.61 748.27 255.99C748.5 252.65 747.78 249.34 748.02 246C748.22 241.35 749.79 236.93 750.51 232.36C751.02 228.91 749.51 225.51 750.14 222.06C751.13 216.02 752.63 210.01 752.75 203.86C752.83 200.58 751.16 197.34 752.11 194.08C753.54 188.74 756.26 183.88 759.17 179.21C760.3 177.09 761.96 174.82 761.37 172.27C759.23 162.03 759.63 151.39 756.82 141.27C755.08 135.33 756.44 129.09 757.36 123.13C758.03 120.39 758.66 116.97 761.33 115.48C765.5 114.65 769.79 115.21 774.01 115.08C779.09 115.06 784.41 114.64 789.16 116.82C797.77 120.6 806.96 122.79 815.69 126.27C822.81 129.18 829.96 132.04 837.02 135.09C839.76 136.1 840.36 139.16 841.25 141.6C836.11 141.95 830.98 142.35 825.9 143.19C825.15 142.76 824.41 142.31 823.71 141.86C818.08 143.14 812.34 141.38 806.69 142.49C809.88 144.1 813.2 145.42 816.62 146.44C824.47 148.81 832.07 151.97 839.37 155.7C841.57 156.96 844.18 158.25 845.09 160.82C846.16 163.58 846.53 166.55 847.04 169.46C845.12 169.52 843.2 169.61 841.28 169.68C840.51 171.04 839.63 172.33 838.85 173.68C841.21 176.15 844.03 178.55 844.85 182.02C846.14 187.42 846.67 192.97 847.85 198.4C846.85 198.51 845.85 198.62 844.87 198.73C845.05 206.34 846.86 213.75 849 221.01C850.3 224.68 848.01 228.36 848.76 232.08C849.81 237.65 851.31 243.14 852.07 248.77C850.76 249.86 849.44 250.94 848.15 252.04C850.56 260.82 853.97 269.26 857.49 277.63C859.88 281.17 863.52 283.74 867.14 285.93C874.09 289.31 882.27 286.69 887.76 281.77C891.56 279.09 891.48 273.83 894.74 270.71C897.55 267.83 899.53 264.3 900.44 260.37C901.2 256.71 903.77 253.94 906.39 251.45C904.55 251.04 902.7 250.61 900.88 250.19C902.04 244.89 906.05 239.09 911.97 239.11C924.68 241.02 937.19 244.86 948.4 251.25C944.26 250.84 940.14 249.85 935.97 250.37C932.11 250.81 928.21 250.74 924.34 250.54C923.98 250.84 923.27 251.46 922.91 251.77C927.88 253.16 932.89 254.51 937.68 256.47C948.36 260.75 959.25 264.47 970.27 267.77C977.94 270.92 986.35 272.04 993.64 276.12C985.62 277.63 977.5 275.71 969.46 276.79C974.76 279.61 980.71 280.74 986.38 282.61C993.51 284.61 1001.46 285.63 1007.13 290.86C1009.65 294.53 1011.23 298.77 1013.83 302.41C1012.84 302.41 1011.86 302.41 1010.9 302.42C1017 307.84 1023.14 313.26 1028.59 319.36C1030.6 321.47 1030.37 324.53 1030.93 327.2C1031.49 331.18 1033.84 334.58 1036.43 337.55C1038.84 340.27 1041.14 343.44 1044.73 344.69C1046.71 346.61 1048.59 348.75 1051.06 350.07C1052.74 350.43 1053.97 349.13 1055.03 348.05C1059.38 343.37 1062.94 337.99 1067.5 333.5C1070.76 330.08 1075.86 331 1080.11 330.91C1092.44 331.04 1104.78 331.06 1117.11 330.94C1123.95 330.83 1127.84 324.37 1132.56 320.39C1134.92 318.16 1137.29 315.93 1139.62 313.65C1142.92 310.62 1146.06 306.54 1150.87 306.14C1158.06 305.64 1165.29 305.45 1172.5 305.07C1181.02 304.79 1189.55 304.39 1198.08 303.96C1201.46 303.97 1204.08 301.59 1205.97 299.02C1210.23 293.33 1214.54 287.67 1218.86 282.02C1222.59 276.67 1227.62 272.03 1229.69 265.69C1229.94 266.04 1230.43 266.75 1230.68 267.11C1231.41 257.08 1230.84 247.03 1231.08 236.99C1231.1 222.68 1231.24 208.36 1231.1 194.05C1231.01 189.74 1231.71 185.48 1232.75 181.32C1239.98 175.36 1247.19 169.37 1254.32 163.29C1256.54 161.44 1258.94 159.46 1261.93 159.09C1266.26 158.55 1270.65 158.87 1275.03 158.78C1278.88 158.85 1283.05 158.51 1286.54 160.51C1290.03 162.55 1293.2 165.08 1296.55 167.35C1298.74 168.81 1300.77 170.62 1301.9 173.07C1299.9 180.53 1301.06 188.32 1301.05 195.94C1301.42 196.14 1302.17 196.54 1302.54 196.74C1306.02 202.1 1313.03 204.35 1315.53 210.35C1316.89 219.4 1315.13 228.67 1316.3 237.74C1317.74 242.06 1322.6 243.55 1326.03 245.97C1331.08 249.53 1337.53 250.77 1343.56 249.48C1346.06 248.87 1347.38 246.46 1348.41 244.31C1352.96 234.32 1357.37 224.25 1362.15 214.35C1362.59 214.28 1363.49 214.13 1363.94 214.06C1364.35 213.12 1364.77 212.18 1365.22 211.25C1368.99 210.57 1372.64 209.37 1376.38 208.54C1382.15 207.42 1388.04 207.27 1393.88 206.69C1405.2 205.4 1416.6 206.33 1427.96 206.07C1437.17 205.8 1446.44 206.65 1455.63 205.53C1466.58 203.94 1477.05 208.57 1487.67 210.46C1509.25 216.05 1531.48 218.25 1553.32 222.56C1559.65 223.91 1566.22 224.15 1572.37 226.33C1563.71 228.05 1554.86 226.7 1546.11 226.88C1541.65 226.9 1536.91 226.25 1532.86 228.57C1546.57 230.46 1560.25 232.54 1573.83 235.27C1584.01 237.42 1594.58 238.01 1604.43 241.61C1607.96 242.6 1608.9 246.52 1610.41 249.4C1609.25 250.14 1608.13 250.89 1607 251.64C1610.95 255.53 1615.3 259.05 1620.07 261.9C1624.21 264.48 1629.3 264.26 1634 264.12C1641.56 263.88 1648.38 258.81 1656.07 259.93C1662.61 261.13 1669.16 262.75 1675.86 262.57C1679.93 262.39 1683.91 261.42 1687.89 260.58C1701.04 257.52 1714.58 256.79 1727.93 255.01C1738.9 253.51 1750.22 254.07 1760.91 250.84C1759.66 250.67 1758.42 250.57 1757.2 250.54C1750.09 251.13 1742.92 251.08 1735.84 250.27C1729.76 250.42 1723.68 250.82 1717.6 250.62C1712.36 250.31 1706.8 252.19 1701.97 249.33C1711.38 247.56 1720.95 246.77 1730.45 245.49C1742.45 244.37 1754.32 242.15 1766.37 241.49C1791.25 238.18 1816.13 234.89 1840.97 231.23C1849.33 229.9 1857.94 229.98 1866.09 227.41C1861.08 227.1 1856.07 226.47 1851.05 226.81C1846.49 227.14 1841.92 226.07 1837.39 226.83C1833.81 227.39 1830.22 226.68 1826.64 226.75C1821.93 226.85 1817.22 226.72 1812.53 226.48C1825.35 222.7 1838.87 222.14 1852 219.8C1860.38 218.14 1868.97 217.98 1877.39 216.49C1883.61 215.42 1890.36 215.45 1895.79 211.79C1902.46 207.34 1910.09 204.4 1916.21 199.12C1911.02 198.12 1905.8 199.47 1900.6 198.77C1895.06 198.1 1889 201.16 1883.93 197.92C1896.7 193.34 1908.13 185.92 1920 179.48V374.62C1910.08 374.28 1900.15 373.72 1890.24 374.22C1869.45 375.27 1848.62 375.61 1827.84 376.83C1828.94 370.43 1829.65 363.02 1825.38 357.59C1821.45 353.23 1815.03 355.32 1809.92 354.31C1805.96 354.19 1802.82 351.7 1800.04 349.16C1800.31 348.64 1800.83 347.61 1801.09 347.1C1796.4 345.42 1792.25 342.65 1788.21 339.81C1788.4 341.51 1788.62 343.22 1788.85 344.93C1788.15 344.97 1786.75 345.06 1786.05 345.1C1791.22 351.3 1791.85 359.58 1795.54 366.52C1797.29 370.38 1797.08 374.74 1797.52 378.88C1773.94 381.94 1750.39 385.27 1726.8 388.29C1724.05 388.42 1721.89 390.19 1720.07 392.05C1713.23 398.88 1706.12 405.42 1699.24 412.2C1693.69 417.8 1686.76 421.7 1680.38 426.23C1675.77 424.4 1671.09 422.43 1666.08 422.22C1658.04 421.8 1649.91 421.98 1642.02 420.18C1632.05 417.95 1621.92 416.47 1612.06 413.8C1602.57 411 1593.06 408.27 1583.59 405.43C1574.11 402.32 1564.04 402.15 1554.27 400.62C1547.21 399.53 1540.04 399.24 1533.07 397.74C1526.48 395.86 1520.71 391.96 1514.24 389.78C1508.28 387.71 1502 386.84 1495.95 385.12C1493.03 384.44 1490.8 382.34 1488.7 380.35C1482.9 374.78 1476.8 369.53 1471 363.96C1465.4 358.26 1457.53 355.99 1450.63 352.36C1440.96 348.38 1431.38 343.78 1421.01 341.94C1410.67 339.86 1400.46 337.19 1390.1 335.26C1377 333.83 1363.8 333.58 1350.68 332.46C1342.18 331.58 1333.81 333.7 1325.41 334.51C1312.94 335.99 1300.53 338.06 1287.96 338.39C1273.86 339.69 1259.42 338.71 1245.68 342.57C1241.53 343.65 1237.05 343.96 1233.36 346.29C1226.12 351.08 1220.28 358.25 1211.73 360.82C1203.42 364.04 1194.86 366.48 1186.14 368.24C1175.79 370.91 1166.12 375.58 1156.08 379.16C1151.52 380.97 1146.88 382.58 1142.33 384.41C1135.1 387.38 1129.29 392.8 1122.57 396.64C1120.92 397.73 1118.9 397.45 1117.08 397.23C1109.71 396.26 1102.4 394.75 1094.97 394.43C1081.65 393.97 1068.32 394.04 1054.99 393.74C1049.91 393.79 1045.44 391.15 1040.95 389.14C1033.34 385.73 1025.66 382.45 1018.1 378.93C1013.44 376.65 1008.17 376.64 1003.11 376.26C992.74 375.52 982.37 374.66 972.01 373.83C963.89 373.09 956.48 377.11 948.7 378.62C945.14 379.3 941.53 378.64 938 378.11C924.14 375.74 910.07 374.97 896.09 373.58C889.29 373.1 882.49 371.71 875.67 372.53C866.39 373.82 857.04 374.81 847.95 377.13C838.48 379.6 828.64 379.52 818.95 380.09C814.95 380.17 811.47 382.31 808.04 384.12C797.14 389.97 786 395.37 775.09 401.22C768.71 404.77 763.16 409.88 756.05 412.02C742.73 416.4 729.64 421.56 717.32 428.3C710.36 431.41 703.96 436.53 696.07 436.89C686.7 437.65 677.36 438.7 668.02 439.6C659.58 440.42 651.35 442.54 642.96 443.66C633.63 444.52 624.24 443.04 614.92 444.29C601.3 446.06 587.59 447.16 574 449.2C559.64 452.35 545.45 456.27 531.07 459.36C519.39 461.47 507.64 463.2 495.96 465.33C492 466.05 487.96 466.36 483.95 465.96C457.3 463.36 430.64 460.97 403.99 458.42C394.49 457.2 385.16 455 375.73 453.41C368.19 452.15 360.75 449.85 353.03 450.09C342.01 450.34 330.99 450.31 319.98 450.61C316.99 450.71 313.84 450.49 311.31 448.73C300.75 441.93 290.2 435.11 279.54 428.48C268.65 422.48 257.34 417.29 246.3 411.57C239.25 407.86 231.52 405.8 224.1 403.01C215.84 400.21 207.75 396.86 199.33 394.56C191 392.68 182.7 390.03 174.05 390.41C157.61 390.6 140.97 388.56 124.71 391.86C125.03 385.89 129.14 381.25 130.79 375.69C132.06 371.53 134.54 367.93 137.17 364.52C136.22 364.47 135.27 364.42 134.32 364.38C134.49 362.78 134.66 361.18 134.83 359.59C130.15 362.19 125.5 365 120.26 366.36C120.79 366.95 121.32 367.54 121.85 368.14C118.75 370.72 115.15 373.01 110.97 373.08C105.33 373.98 98.75 371.99 93.93 375.86C89.18 380.05 89.8 386.95 90.39 392.64C85.91 392.78 81.43 392.62 76.96 392.58C69.07 392.52 61.67 395.67 53.97 396.94C45.79 398.54 37.34 397.5 29.19 399.32C20.07 401.37 11.45 405.67 2 406.18C1.32 407.26 0.64 408.34 0 409.46V291.94C1.67 289.21 3.8 286.48 3.79 283.12C4.18 275.97 3.52 268.79 4.1 261.64C5.97 255.24 5.09 248.56 5.22 242.01C5.33 218.66 5.13 195.31 5.46 171.96C5.53 169 4.83 166.1 4.09 163.25C3.65 155.53 4.03 147.78 3.83 140.05C3.87 135.89 3.44 131.41 5.55 127.64C7.72 123.71 10.1 119.9 12.42 116.07C13.68 115.04 15.56 113.51 17.13 114.83C20.41 116.33 22.9 120.88 26.91 119.73C33.57 114.89 37.73 107.22 44.59 102.62Z" fill="#FD4E4D" stroke="#FD4E4D" stroke-width="0.5"/>
<path d="M1920 370H0V467H1920V370Z" fill="#FD4E4D"/>
<path d="M1866 334H1175V370H1866V334Z" fill="#FD4E4D"/>
<path d="M196 331H94V418H196V331Z" fill="#FD4E4D"/>
<path d="M1401 298H1309V370H1401V298Z" fill="#FD4E4D"/>
</g>
<rect y="448" width="1920" height="402" fill="#FD4E4D"/>
</svg>
