<svg width="619" height="300" viewBox="0 0 619 300" fill="none" xmlns="http://www.w3.org/2000/svg">
<g clip-path="url(#clip0_4_47)">
<path d="M618.38 299.66V3.05176e-05L0 3.05176e-05V299.66L618.38 299.66Z" fill="#FF8A00"/>
<path d="M434.702 22.7788C441.869 21.6615 449.156 21.0801 456.447 21.0017C460.763 20.9777 465.073 21.2103 469.384 21.3518C477.287 21.7436 485.215 21.4011 493.117 21.8283C507.151 22.5601 521.053 24.3877 534.981 25.9145C541.924 26.7107 548.925 27.2491 555.777 28.5244C561.256 29.5115 566.62 31.0572 571.519 33.3436C572.328 33.7455 573.142 34.179 573.768 34.7756C574.082 35.0903 574.384 35.4973 574.264 35.9245C574.127 36.3479 573.685 36.6247 573.286 36.8724C572.033 37.6294 570.489 37.9378 568.982 38.1236C565.656 38.5028 562.298 38.202 558.96 38.2285C554.031 38.4421 549.103 38.6671 544.179 38.9275C546.792 39.6403 549.569 40.0751 551.952 41.2783C552.423 41.5374 552.94 41.8496 553.102 42.3273C553.205 42.8443 552.647 43.2285 552.178 43.4749C550.992 44.0664 549.64 44.366 548.319 44.6655C544.81 45.3682 541.228 45.779 537.651 46.1468C530.586 46.8268 523.485 47.2148 516.384 47.5371C500.526 48.1892 484.638 48.418 468.767 48.0591C465.564 47.9617 462.358 47.8682 459.166 47.6407C457.389 47.532 455.612 47.3942 453.86 47.1263C453.105 46.9961 452.286 46.8912 451.714 46.4236C452.161 45.8258 453.076 45.7297 453.816 45.5199C456.579 44.9271 459.415 44.6112 462.239 44.2826C470.365 43.3789 478.534 42.7785 486.7 42.2009C505.658 40.8663 524.648 39.8918 543.637 38.9338C542.215 38.5053 540.701 38.341 539.233 38.0503C537.553 37.8039 535.892 37.3779 534.172 37.4007C515.967 36.9899 497.763 36.5905 479.557 36.1823C477.682 36.1229 475.79 36.1785 473.941 35.8739C460.046 34.2207 446.082 33.0251 432.173 31.4743C429.227 31.1457 426.247 31.085 423.308 30.7236C420.74 30.4038 418.192 29.7655 416 28.5838C416.482 28.0947 417.189 27.8255 417.817 27.488C419.898 26.4845 422.076 25.6149 424.349 24.9564C427.735 24.0363 431.208 23.3526 434.702 22.7788Z" fill="#FFE6D5" stroke="#FFE6D5"/>
<path d="M134.667 135.693C141.822 136.514 149.095 136.941 156.372 136.999C160.68 137.016 164.983 136.846 169.286 136.742C177.174 136.454 185.087 136.705 192.975 136.392C206.984 135.854 220.86 134.512 234.762 133.39C241.692 132.805 248.681 132.41 255.52 131.473C260.989 130.748 266.343 129.613 271.233 127.933C272.041 127.638 272.853 127.32 273.478 126.881C273.791 126.65 274.093 126.351 273.973 126.038C273.836 125.727 273.395 125.523 272.997 125.341C271.746 124.785 270.205 124.559 268.701 124.422C265.381 124.144 262.029 124.365 258.697 124.345C253.777 124.188 248.859 124.023 243.943 123.832C246.551 123.308 249.323 122.989 251.702 122.105C252.173 121.915 252.689 121.685 252.85 121.335C252.953 120.955 252.396 120.673 251.928 120.492C250.744 120.057 249.395 119.837 248.075 119.617C244.573 119.101 240.998 118.799 237.428 118.529C230.375 118.03 223.287 117.745 216.2 117.508C200.371 117.029 184.512 116.861 168.67 117.124C165.473 117.196 162.273 117.265 159.086 117.432C157.313 117.512 155.539 117.613 153.79 117.81C153.037 117.905 152.219 117.982 151.648 118.326C152.094 118.765 153.008 118.835 153.746 118.99C156.504 119.425 159.335 119.657 162.154 119.898C170.265 120.562 178.419 121.003 186.571 121.427C205.493 122.408 224.449 123.123 243.403 123.827C241.984 124.142 240.472 124.263 239.007 124.476C237.329 124.657 235.672 124.97 233.955 124.953C215.784 125.255 197.613 125.548 179.44 125.848C177.569 125.892 175.68 125.851 173.834 126.075C159.965 127.289 146.027 128.167 132.143 129.306C129.202 129.548 126.229 129.592 123.294 129.858C120.732 130.093 118.187 130.562 116 131.43C116.481 131.789 117.187 131.987 117.814 132.234C119.891 132.972 122.065 133.61 124.334 134.094C127.713 134.77 131.18 135.272 134.667 135.693Z" fill="#FFE6D5" stroke="#FFE6D5"/>
<path d="M107.487 29.4238C114.206 28.7615 121.021 28.9056 127.721 29.6462C131.709 30.0772 135.697 30.5082 139.684 30.9455C140.049 30.986 140.416 31.0213 140.785 31.0289C161.726 30.9013 182.665 30.828 203.605 30.7028C203.918 30.6902 204.236 30.7205 204.539 30.8014C192.983 32.1614 181.39 33.29 169.791 34.3517C171.473 34.655 173.199 34.7738 174.899 35.0026C182.383 35.8987 189.872 36.7796 197.356 37.6808C204.359 38.5604 211.398 39.2733 218.355 40.3918C222.177 40.9998 225.975 41.7176 229.76 42.4734C232.732 43.1054 235.795 43.5579 238.607 44.6119C238.458 44.6865 238.298 44.7232 238.129 44.7206C230.978 44.5803 223.948 43.3898 216.882 42.5847C213.122 42.1524 209.343 41.8415 205.587 41.3865C198.721 40.6168 191.882 39.703 185.034 38.8372C176.348 37.7098 167.634 36.7278 158.883 36.0238C157.361 35.9 155.839 35.7736 154.316 35.6497C153.556 35.5764 152.792 35.6649 152.035 35.718C144.499 36.2197 136.95 36.6153 129.393 36.8175C122.006 37.0097 114.597 37.0653 107.228 36.518C104.656 36.3221 102.086 36.0428 99.5783 35.5208C98.0636 35.1682 96.415 34.77 95.4234 33.678C95.2075 33.5757 94.9428 33.6325 94.7086 33.6174C86.2361 33.6983 77.7681 33.9649 69.3077 34.3504C68.3343 34.4111 67.3549 34.3959 66.3877 34.516C66.6432 34.5805 66.9032 34.6361 67.1694 34.6588C95.1116 37.1146 123.049 39.5956 150.964 42.2396C167.062 43.7765 183.151 45.3766 199.232 47.0159C202.571 47.3369 205.91 47.6428 209.23 48.0788C211.662 48.4188 214.111 48.6842 216.541 49.0419C215.264 49.0823 213.991 48.9623 212.716 48.937C208.157 48.7651 203.594 48.6311 199.033 48.4681C195.328 48.3998 191.636 48.1281 187.939 47.9486C159.61 46.4345 131.259 45.2439 102.918 43.8839C99.373 43.7083 95.8264 43.549 92.2768 43.4694C84.4689 43.2912 76.6548 43.3455 68.8484 43.1003C61.2244 42.84 53.5762 42.3875 46.0982 41.0667C43.1934 40.5738 40.3297 39.9267 37.5101 39.1658C37.5755 38.9194 37.8082 38.7134 38.1199 38.6906C40.8544 38.496 43.2969 37.3547 45.8807 36.6886C51.8439 35.5385 57.9455 34.9786 64.0441 34.6184C64.444 34.5969 64.841 34.5539 65.2334 34.4907C54.8248 33.5441 44.4086 32.6454 34 31.6963C34.2023 31.6369 34.4076 31.5686 34.6251 31.5724C42.9912 31.5496 51.3573 31.4776 59.7234 31.4397C71.9919 31.3879 84.2605 31.3247 96.5291 31.259C97.1176 31.2413 97.7199 31.3095 98.3008 31.1983C101.233 30.2226 104.366 29.7537 107.487 29.4238Z" fill="#FFE6D5" stroke="#FFE6D5"/>
<path d="M517 39C520.557 39.6003 524.11 40.2449 527.596 41.0968C528.599 41.366 529.669 41.2523 530.707 41.299C540.6 41.4621 550.489 41.8261 560.367 42.2962C567.899 42.6387 575.437 43.1317 582.875 44.1971C584.939 44.4663 587.045 44.321 589.109 44.5927C589.602 44.6673 590.117 44.7671 590.525 45.0275C590.916 45.2664 590.931 45.7909 590.61 46.0752C590.114 46.323 589.504 46.3154 588.949 46.3609C586.318 46.4557 583.682 46.261 581.053 46.414C572.886 46.7148 564.739 47.3846 556.56 47.4238C546.664 47.4491 536.765 47.5805 526.876 47.8978C524.537 46.352 522.174 44.8126 520.101 43.0192C518.758 41.8678 517.712 40.4876 517 39Z" fill="#FFE6D5" stroke="#FFE6D5"/>
</g>
<defs>
<clipPath id="clip0_4_47">
<rect width="618.38" height="299.66" fill="white"/>
</clipPath>
</defs>
</svg>
