<svg width="1893" height="422" viewBox="0 0 1893 422" fill="none" xmlns="http://www.w3.org/2000/svg">
<g clip-path="url(#clip0_9_759)">
<mask id="mask0_9_759" style="mask-type:luminance" maskUnits="userSpaceOnUse" x="0" y="0" width="1893" height="422">
<path d="M1893 0H0V422H1893V0Z" fill="white"/>
</mask>
<g mask="url(#mask0_9_759)">
<mask id="mask1_9_759" style="mask-type:luminance" maskUnits="userSpaceOnUse" x="0" y="0" width="1893" height="310">
<path d="M1893 0H0V310H1893V0Z" fill="white"/>
</mask>
<g mask="url(#mask1_9_759)">
<path d="M956.862 1.47997C958.824 -0.70003 959.475 3.35002 960.51 4.53002C960.796 14.04 959.594 23.5 959.406 33C959.16 42.15 960.175 51.25 960.856 60.36C961.368 66.38 961.23 72.44 961.999 78.44C963.567 73.1 963.695 67.49 964.484 62.01C964.839 60.16 965.075 57.83 967.215 57.25C969.719 59.63 970.123 63.22 970.912 66.43C971.218 62.65 971.237 58.81 972.125 55.12C972.667 51.38 979.509 51.96 978.947 55.97C978.563 63.73 976.709 71.35 974.876 78.87C973.84 82.56 973.002 86.43 970.873 89.67C969.532 92.06 966.505 91.83 964.237 92.46C963.449 98.59 962.956 104.76 962.315 110.91C976.098 111.69 989.901 112.14 1003.66 113.21C1011.99 114.6 1020.09 117.11 1028.33 118.91C1051.3 124.42 1074.26 129.94 1097.17 135.67C1097.39 133.19 1097.62 130.73 1097.87 128.28C1094.36 128.53 1090.06 130.14 1087.19 127.31C1085.02 125.18 1086.3 121.34 1089.1 120.57C1093.2 118.75 1097.01 121.75 1100.22 124C1100.59 123.12 1100.99 122.24 1101.38 121.37C1097.44 119.67 1093.19 118.42 1089.77 115.72C1086.71 113.28 1085.41 107.95 1088.61 105.09C1091.69 102.64 1096.28 103.85 1099.05 106.27C1103.22 109.6 1103.54 115.35 1105 120.14C1106.56 119.27 1108.12 118.41 1109.69 117.56C1109.4 112.16 1108.25 106.44 1110.27 101.26C1111.59 97.57 1115.79 96.84 1118.42 94.53C1121.12 88.34 1121.16 81.25 1124.11 75.15C1125.32 74.31 1126.79 74 1128.18 73.49C1128.74 80.66 1126.62 87.85 1122.8 93.85C1119.86 97.55 1124.07 101.9 1123.02 106.02C1122.42 111.78 1117.44 115.28 1113.55 118.84C1115.87 121.58 1118.79 124.26 1119.31 128.05C1120.1 133.4 1118.18 138.64 1116.9 143.76C1140.73 153.01 1164.15 163.35 1188.31 171.71C1199.47 175.59 1210.42 180.14 1221.71 183.59C1218.39 178.83 1213.24 176.15 1208.41 173.28C1213.98 173.74 1219.37 175.23 1224.59 177.21C1222.66 172.91 1219.98 169.04 1217.15 165.32C1219.73 166.26 1222.5 167.05 1224.62 168.95C1227.05 171.07 1228.53 174.01 1230.1 176.8C1233.6 170.67 1239.46 166.38 1246.24 164.76C1243.1 168.12 1240.22 171.74 1238.04 175.83C1244.06 173.78 1250.46 173.2 1256.73 174.43C1250.87 176.68 1244.7 178.71 1240.21 183.4C1259.68 180.24 1278.81 175.07 1298.35 172.33C1300.73 183.27 1303.17 194.23 1306.51 204.92C1309.24 213.74 1315.8 221.5 1324.49 224.64C1328.05 226.3 1333.01 226.02 1335.39 229.56C1336.73 236.51 1335.91 243.72 1336.16 250.78C1330.47 251.16 1324.31 249.95 1319.11 252.88C1303.17 261.17 1287.01 269 1271.06 277.23C1267.93 278.9 1264.48 279.83 1260.99 280.28C1249.7 281.91 1238.48 283.99 1227.2 285.64C1229.59 282.17 1232.18 278.74 1235.59 276.22C1239.78 272.92 1244.93 271.4 1249.78 269.42C1242.8 267.46 1235.51 268.37 1228.85 271.05C1231.02 266.04 1234.33 261.71 1237.82 257.57C1234.14 258.81 1230.37 260.16 1227.38 262.75C1224.25 265.27 1222.15 268.76 1220.12 272.18C1218.2 268.41 1216.3 264.4 1212.98 261.68C1210.84 259.87 1208.08 259.16 1205.53 258.26C1208.93 262.7 1211.96 267.46 1213.88 272.78C1208.05 270.06 1201.84 268.19 1195.42 267.85C1200.37 270.85 1205.74 273.6 1209.27 278.42C1211.52 281.18 1212.49 284.69 1213.33 288.1C1210.17 288.51 1206.89 289.01 1203.79 287.98C1190.38 283.83 1176.84 280.1 1163.39 276.1C1156.16 274.22 1149.14 271.2 1141.63 270.73C1135.95 270.26 1130.27 269.97 1124.61 269.43C1127.29 262.3 1129.7 254.82 1129.14 247.08C1128.84 238.22 1124.79 230.19 1121.83 222.04C1125.95 219.03 1128.56 214.63 1131.36 210.46C1132.84 207.9 1136.03 208.97 1138.32 209.49C1144.64 211.23 1151.78 213.65 1158.08 210.61C1165.62 206.45 1165.2 193.67 1157.37 190.07C1151.94 187.46 1146.96 192.33 1142.31 194.53C1141.11 188.2 1142.71 180.77 1138.2 175.54C1132.68 169.48 1122.51 170.5 1116.77 175.69C1113.02 178.99 1111.31 184.07 1111.07 188.99C1110.53 197.34 1111.02 205.72 1111.18 214.09C1106.96 213.39 1102.54 212.58 1098.35 213.82C1094.28 214.89 1090.79 217.34 1087.33 219.66C1085.21 214.6 1083.19 209.26 1079.2 205.38C1077.72 203.61 1075.51 202.24 1074.83 199.97C1075.36 195.78 1077.66 192.1 1078.52 187.99C1079.65 183.49 1079.68 178.42 1077.34 174.3C1074.55 169.36 1067.45 167.86 1062.87 171.1C1060.71 172.64 1059.74 175.4 1059.91 178.01C1060.09 183.33 1061.65 188.46 1062.64 193.66C1058.48 195.17 1052.49 195.87 1051.25 201.03C1050.32 208.88 1053.38 217.32 1059.42 222.42C1065.38 227.23 1073.05 228.86 1079.98 231.74C1078.41 243.18 1078.5 254.99 1082.14 266.05C1062.24 268.82 1042.29 271.24 1022.42 274.08C1003.94 277.26 985.494 280.64 966.998 283.7C979.007 273.13 995.413 270.04 1010.86 269.71C999.327 264.85 986.657 262.34 974.166 263.82C968.92 264.31 963.892 265.98 958.844 267.43C964.198 261.04 970.883 255.83 978.386 252.31C984.005 249.51 990.118 248.07 996.123 246.4C987.998 244.3 979.46 243.41 971.178 245.05C966.574 245.84 962.216 247.56 957.839 249.15C961.23 240.26 967.422 232.96 974.333 226.67C964.77 228.6 955.63 233.26 949.014 240.62C946.096 243.81 943.917 247.6 941.728 251.32C938.82 244.39 934.896 237.6 928.704 233.2C924.78 230.14 919.988 228.65 915.197 227.72C921.763 234.57 927.422 242.44 930.291 251.64C919.949 247.03 908.847 243.86 897.479 243.82C904.351 247.23 911.43 250.51 917.218 255.72C922.088 259.76 925.756 265.11 928.142 271C913.294 266.08 897.706 263.77 882.119 263.4C895.202 268.83 909.804 272.1 920.531 282.02C914.033 281.69 907.566 281.13 901.078 280.79C895.488 280.48 890.341 278.05 885.116 276.27C873.393 272.18 861.67 268.1 849.947 264.02C845.067 262.44 840.335 260.04 835.139 259.79C812.432 259.37 789.716 258.97 767 258.78C767.72 250.49 768.499 242.2 769.002 233.89C769.288 231.82 769.15 229.41 770.619 227.76C774.129 226.14 778.24 225.93 781.425 223.56C785.507 220.52 788.109 215.93 790.18 211.34C794.459 201.8 796.086 191.33 796.983 180.97C797.584 173.45 798.284 165.82 797.2 158.32C796.746 154.55 793.473 151.51 789.677 151.69C784.708 151.06 780.537 155.31 779.729 160.02C777.925 170.04 780.173 180.47 777.412 190.36C775.499 197.2 772.502 203.95 767.365 208.94C767.267 188.4 767.424 167.86 767.326 147.32C774.188 143.29 781.849 139.72 786.069 132.51C795.159 133.2 804.279 133.48 813.379 134.11C823.652 135.09 833.66 130.77 842.011 125.02C844.83 123.32 847.532 121.04 850.894 120.62C864.539 119.68 878.372 121.16 891.879 118.53C910.454 115.62 929.029 112.76 947.614 109.94C947.447 105.53 948.462 100.84 946.875 96.64C943.74 91.95 942.024 86.49 938.899 81.79C934.984 75.99 935.961 68.63 935.665 62C935.832 54.65 934.6 47.25 935.635 39.94C935.527 36.66 941.018 35.61 941.6 39.05C942.764 43.27 941.965 47.72 941.63 52.02C942.714 50.76 943.789 49.49 944.903 48.25C945.938 49.69 947.575 50.99 947.457 52.99C947.703 58.65 947.003 64.31 947.417 69.98C947.723 73.72 947.516 77.97 950.168 80.97C952.583 70.12 950.483 58.94 951.42 47.95C952.436 34 953.224 20.03 954.457 6.10997C955.098 4.49997 955.63 2.73997 956.862 1.47997Z" fill="#672C44" stroke="#672C44" stroke-width="0.5"/>
<path d="M549.345 10.1101C550.725 8.70001 553.831 8.22002 554.649 10.4401C556.217 13.1001 556.029 16.3101 556.069 19.3001C555.448 33.8301 554.718 48.4101 555.931 62.9201C556.67 71.9301 557.429 80.9501 558.613 89.9201C560.929 84.5501 559.736 78.5701 560.239 72.9201C561.038 62.2801 560.998 51.5801 562.231 40.9801C562.862 36.2301 571.321 36.9101 570.779 41.9301C570.099 59.1301 567.762 76.2701 567.338 93.4901C570.582 84.3101 571.341 74.5301 573.244 65.0401C573.421 61.7901 578.676 60.7201 579.524 64.0301C580.313 70.7801 578.075 77.39 577.109 84.0201C576.054 88.97 575.561 94.13 573.628 98.84C571.371 103.67 565.613 104.55 561.087 105.94C561.107 109.02 561.127 112.11 561.146 115.21C607.702 111.26 654.357 108.53 701.011 106.32C704.304 106.32 707.223 108.06 710.171 109.34C710.891 117.41 711.837 125.46 712.369 133.55C709.205 130.03 706.641 125.91 702.954 122.92C700.38 120.81 696.269 121.6 694.554 124.43C691.823 128.43 692.641 133.55 693.203 138.06C695.441 155.05 699.089 171.8 702.481 188.58C704.866 198.16 705.823 208.71 712.133 216.7C715.968 221.81 721.647 225.18 727.72 226.79C730.826 227.89 735.381 228.65 735.776 232.75C736.604 241.09 735.874 249.53 736.357 257.91C729.505 257.73 722.663 257.28 715.82 257.19C702.826 257.07 690.284 252.69 677.369 252.05C665.153 253.87 653.341 258.12 640.948 258.91C633.583 260 625.922 259.81 618.745 261.69C612.464 269.1 607.929 277.93 601.668 285.37C599.322 285.79 596.926 285.35 594.579 285.15C588.131 284.35 581.634 284.03 575.186 283.23C578.696 277.93 583.074 273.17 588.437 269.77C593.475 266.26 599.45 264.7 605.099 262.52C595.644 259.63 585.469 260.74 576.547 264.87C579.219 257.83 583.744 251.82 588.851 246.43C577.957 248.46 569.3 256.61 564.489 266.45C561.275 257.33 554.56 248.73 544.632 247.11C549.493 253.09 553.772 259.61 556.039 267.08C548.27 263.12 539.781 260.7 531.075 260.33C536.587 263.61 542.483 266.5 546.949 271.28C550.311 274.48 552.569 278.63 554.383 282.89C547.708 283.14 541.023 282.81 534.349 283.11C529.764 283.25 526.303 286.71 522.507 288.88C517.519 291.83 512.806 295.28 507.689 298C502.335 300.03 496.498 300.05 490.918 301.12C483.77 302 476.661 304.13 469.405 303.39C452.535 301.83 435.627 300.82 418.757 299.25C421.853 294.65 425.491 290.34 430.135 287.28C434.749 283.91 440.32 282.45 445.535 280.37C437.234 277.82 428.419 278.93 420.522 282.31C422.918 276.15 427.029 270.98 431.328 266.09C426.95 267.42 422.543 269.06 418.994 272.08C414.971 275.17 412.28 279.6 409.943 284.05C408.07 279.61 406.039 275.04 402.391 271.79C399.63 269.06 395.893 267.85 392.295 266.79C396.603 272.02 400.35 277.76 402.509 284.26C395.509 281.04 388.075 278.78 380.355 278.39C387.286 282.2 394.454 286.27 398.723 293.27C384.052 287.49 369.648 281 355.095 274.9C350.304 273.14 345.147 274.47 340.208 274.61C325.162 275.36 310.107 276.28 295.062 277.06C295.229 269.37 295.239 261.66 295.693 253.98C295.821 250.68 296.886 246.92 300.06 245.4C304.832 242.93 311.339 242.86 314.307 237.66C317.176 232.25 317.6 225.94 318.596 219.98C320.814 200.36 322.648 180.7 324.462 161.05C335.593 160.05 346.774 159.85 357.915 159.02C371.698 157.99 385.452 156.65 399.226 155.57C410.18 154.92 420.709 151.58 431.427 149.51C440.349 147.27 449.676 146.36 458.155 142.55C472.501 136.45 486.915 130.51 501.28 124.44C505.599 122.62 509.848 120.34 514.59 119.94C525.12 118.89 535.67 117.96 546.19 116.81C545.43 115.35 545.125 113.17 543.133 113.03C537.494 111.45 531.282 110.94 526.52 107.14C523.188 104.7 520.624 100.1 522.33 95.9601C522.951 94.2501 524.864 93.7101 526.491 94.0001C530.079 96.9401 530.75 102.1 534.013 105.35C537.139 108.54 541.684 109.31 545.825 110.25C545.253 108.65 545.46 106.46 543.754 105.56C540.757 103.34 537.129 101.55 535.522 97.9401C533.629 93.8601 531.677 89.5801 531.47 85.0101C531.736 81.8001 536.744 81.4501 538.144 84.0201C540.737 88.3401 541.94 93.5701 545.904 96.9601C546.269 71.0701 545.076 45.1601 546.466 19.2801C546.84 16.1201 546.476 12.1901 549.345 10.1101Z" fill="#672C44" stroke="#672C44" stroke-width="0.5"/>
<path d="M1353.6 33.1968C1354.98 31.7868 1358.09 31.3068 1358.91 33.5268C1360.48 36.1868 1360.29 39.3968 1360.33 42.3868C1359.71 56.9168 1358.98 71.4968 1360.19 86.0068C1360.93 95.0168 1361.69 104.037 1362.87 113.007C1365.19 107.637 1364 101.657 1364.5 96.0068C1365.3 85.3668 1365.26 74.6668 1366.49 64.0668C1367.12 59.3168 1375.58 59.9968 1375.04 65.0168C1374.36 82.2169 1372.02 99.3568 1371.6 116.577C1374.84 107.397 1375.6 97.6168 1377.5 88.1269C1377.68 84.8769 1382.94 83.8068 1383.78 87.1168C1384.57 93.8668 1382.33 100.477 1381.37 107.107C1380.31 112.057 1379.82 117.217 1377.89 121.927C1375.63 126.757 1369.87 127.637 1365.35 129.027C1365.37 132.107 1365.39 135.197 1365.41 138.297C1411.96 134.347 1458.62 131.617 1505.27 129.407C1508.56 129.407 1511.48 131.147 1514.43 132.427C1515.15 140.497 1516.1 148.547 1516.63 156.637C1513.46 153.117 1510.9 148.997 1507.21 146.007C1504.64 143.897 1500.53 144.687 1498.81 147.517C1496.08 151.517 1496.9 156.637 1497.46 161.147C1499.7 178.137 1503.35 194.887 1506.74 211.667C1509.13 221.247 1510.08 231.797 1516.39 239.787C1520.23 244.897 1525.91 248.267 1531.98 249.877C1535.09 250.977 1539.64 251.737 1540.03 255.837C1540.86 264.177 1540.13 272.617 1540.62 280.997C1533.76 280.817 1526.92 280.367 1520.08 280.277C1507.08 280.157 1494.54 275.777 1481.63 275.137C1469.41 276.957 1457.6 281.207 1445.21 281.997C1437.84 283.087 1430.18 282.897 1423 284.777C1416.72 292.187 1412.19 301.017 1405.93 308.457C1403.58 308.877 1401.19 308.437 1398.84 308.237C1392.39 307.437 1385.89 307.117 1379.45 306.317C1382.96 301.017 1387.33 296.257 1392.7 292.857C1397.73 289.347 1403.71 287.787 1409.36 285.607C1399.9 282.717 1389.73 283.827 1380.81 287.957C1383.48 280.917 1388 274.907 1393.11 269.517C1382.22 271.547 1373.56 279.697 1368.75 289.537C1365.53 280.417 1358.82 271.817 1348.89 270.197C1353.75 276.177 1358.03 282.697 1360.3 290.167C1352.53 286.207 1344.04 283.787 1335.33 283.417C1340.85 286.697 1346.74 289.587 1351.21 294.367C1354.57 297.567 1356.83 301.717 1358.64 305.977C1351.97 306.227 1345.28 305.897 1338.61 306.197C1334.02 306.337 1330.56 309.797 1326.77 311.967C1321.78 314.917 1317.06 318.367 1311.95 321.087C1306.59 323.117 1300.76 323.137 1295.18 324.207C1288.03 325.087 1280.92 327.217 1273.66 326.477C1256.79 324.917 1239.89 323.907 1223.02 322.337C1226.11 317.737 1229.75 313.427 1234.39 310.367C1239.01 306.997 1244.58 305.537 1249.79 303.457C1241.49 300.907 1232.68 302.017 1224.78 305.397C1227.18 299.237 1231.29 294.067 1235.59 289.177C1231.21 290.507 1226.8 292.147 1223.25 295.167C1219.23 298.257 1216.54 302.687 1214.2 307.137C1212.33 302.697 1210.3 298.127 1206.65 294.877C1203.89 292.147 1200.15 290.937 1196.55 289.877C1200.86 295.107 1204.61 300.847 1206.77 307.347C1199.77 304.127 1192.33 301.867 1184.61 301.477C1191.55 305.287 1198.71 309.357 1202.98 316.357C1188.31 310.577 1173.91 304.087 1159.35 297.987C1154.56 296.227 1149.41 297.557 1144.47 297.697C1129.42 298.447 1114.37 299.367 1099.32 300.147C1099.49 292.457 1099.5 284.747 1099.95 277.067C1100.08 273.767 1101.14 270.007 1104.32 268.487C1109.09 266.017 1115.6 265.947 1118.57 260.747C1121.44 255.337 1121.86 249.027 1122.85 243.067C1125.07 223.447 1126.91 203.787 1128.72 184.137C1139.85 183.137 1151.03 182.937 1162.17 182.107C1175.96 181.077 1189.71 179.737 1203.48 178.657C1214.44 178.007 1224.97 174.667 1235.69 172.597C1244.61 170.357 1253.94 169.447 1262.41 165.637C1276.76 159.537 1291.17 153.597 1305.54 147.527C1309.86 145.707 1314.11 143.427 1318.85 143.027C1329.38 141.977 1339.93 141.047 1350.45 139.897C1349.69 138.437 1349.38 136.257 1347.39 136.117C1341.75 134.537 1335.54 134.027 1330.78 130.227C1327.45 127.787 1324.88 123.187 1326.59 119.047C1327.21 117.337 1329.12 116.797 1330.75 117.087C1334.34 120.027 1335.01 125.187 1338.27 128.437C1341.4 131.627 1345.94 132.397 1350.08 133.337C1349.51 131.737 1349.72 129.547 1348.01 128.647C1345.02 126.427 1341.39 124.637 1339.78 121.027C1337.89 116.947 1335.94 112.667 1335.73 108.097C1335.99 104.887 1341 104.537 1342.4 107.107C1345 111.427 1346.2 116.657 1350.16 120.047C1350.53 94.1568 1349.33 68.2468 1350.72 42.3668C1351.1 39.2068 1350.73 35.2768 1353.6 33.1968Z" fill="#672C44" stroke="#672C44" stroke-width="0.5"/>
<path d="M1717.44 17.79C1721.45 15.97 1728.79 17.3 1728.33 22.99C1728.61 40.4 1727.93 57.81 1727.67 75.23C1729.84 74.58 1732.41 74.46 1734.12 72.73C1734.71 70.21 1734.53 67.5901 1734.51 65.0301C1734.24 58.3501 1734.59 51.66 1733.95 45C1733.79 42.76 1733.53 39.84 1735.88 38.63C1738.2 36.95 1741.67 38.09 1742.03 41.12C1743.18 48.68 1742.52 56.4 1743.14 64.02C1743.15 68.28 1744.33 72.71 1743.12 76.88C1739.86 82.07 1732.91 81.13 1727.69 81.59C1727.5 85.94 1727.51 90.3 1727.67 94.67C1744.78 97.99 1761.93 101.19 1779.05 104.55C1798.55 108.79 1818.05 113.06 1837.52 117.43C1843.79 118.74 1850.23 118.36 1856.6 118.62C1868.73 119.07 1880.86 119.03 1893 119.4V247.35C1867.21 249.39 1841.44 251.72 1815.59 253.07C1818.62 250.66 1821.94 248.34 1823.86 244.84C1827.66 237.88 1826.19 228.76 1821.34 222.71C1818.35 218.91 1813.18 217.19 1808.55 218.39C1802.46 219.94 1797.1 223.87 1793.32 228.89C1789.25 234.33 1788.01 241.19 1785.79 247.48C1782.67 243.87 1779.63 240.19 1776.62 236.49C1780.43 233.96 1784.52 231.32 1786.55 227C1789.38 220.91 1789.64 213.77 1788.14 207.28C1786.21 199.51 1781.02 193.27 1777.27 186.38C1782.6 183.07 1788.29 179.71 1791.69 174.19C1794.23 170.17 1794.14 164.75 1791.79 160.67C1788.52 154.74 1782.96 150.7 1777.69 146.75C1779.62 142.27 1782.46 138.02 1783.12 133.1C1783.54 128.16 1776.64 124.47 1773.52 128.83C1770.52 134.25 1772.77 140.82 1771.3 146.63C1770.36 149.2 1767.18 148.8 1765.08 149.43C1765.42 145.12 1766.64 140.61 1765.26 136.39C1763.45 132.15 1756.48 132.68 1755.18 137.03C1753.81 143.11 1757.42 148.65 1760.13 153.77C1758.76 154.74 1757.41 155.72 1756.08 156.7C1754.02 153.85 1752.19 150.79 1749.7 148.31C1748.15 146.52 1745.24 146.83 1743.58 148.26C1742.62 149.85 1742.98 151.97 1743.69 153.62C1745.81 157.89 1750.24 160.39 1752.4 164.63C1753.3 168 1752.36 171.75 1753.98 174.96C1755.19 177.54 1756.69 179.97 1758.07 182.46C1753.98 183.41 1749.9 184.39 1745.84 185.43C1743.6 181.95 1741.91 178.08 1739.28 174.87C1736.04 170.98 1728.83 175.13 1730.05 179.92C1731.11 185 1736.13 187.31 1739.12 191.03C1741.35 194.04 1738.87 197.64 1737.8 200.6C1731.02 196.22 1723.54 192.5 1715.45 191.67C1712.53 191.33 1709.19 192.2 1707.71 194.97C1703.8 202.67 1707.06 214.58 1716.2 216.44C1724.73 217.82 1732.47 212.67 1740.2 209.82C1744.09 216.17 1747.38 223.01 1752.43 228.55C1755.02 231.44 1758.15 233.73 1761.26 236.03C1756.56 239.78 1751.87 243.73 1748.81 249.04C1730.19 244.62 1711.47 240.66 1692.86 236.23C1689.29 235.36 1685.7 234.53 1682.04 234.43C1663.01 234.06 1643.97 234.59 1624.97 233.89C1630.88 229.41 1637.89 226.97 1644.97 225.14C1635.02 221.3 1624.08 223.12 1614.55 227.29C1617.25 219.76 1622.2 213.47 1627.51 207.65C1620.82 209.3 1614.44 212.52 1609.62 217.57C1606.28 220.91 1603.96 225.08 1601.72 229.21C1599.35 223.21 1596.3 217.19 1591.13 213.2C1588.1 210.56 1584.21 209.43 1580.42 208.56C1585.91 214.6 1590.24 221.68 1592.67 229.56C1584.5 225.75 1575.81 222.81 1566.73 222.68C1572.34 226.1 1578.34 229.06 1582.96 233.9C1570.96 234.17 1558.97 233.6 1547 233.76C1542.33 233.79 1538.18 236.1 1533.96 237.78C1527.22 240.45 1520.6 243.57 1513.51 245.19C1505.88 246.97 1498.38 249.27 1490.69 250.73C1478.64 253 1466.55 255.08 1454.54 257.51C1449.58 258.57 1444.51 257.9 1439.56 257.24C1430.11 255.98 1420.57 255.5 1411.23 253.54C1404.87 252.27 1398.51 251.01 1392.18 249.66C1386.44 248.41 1380.55 248.99 1374.74 249.09C1375.37 241.73 1375.33 234.32 1376.04 226.98C1376.17 222.03 1381.06 219.79 1384.47 217.25C1397 208.96 1405.32 195.13 1408.39 180.42C1410.11 171.76 1411.52 162.88 1411.02 154.04C1410.95 150.14 1407.21 148.21 1403.93 147.58C1412.26 144.56 1421.03 143.18 1429.59 141C1441.82 138.03 1454.15 135.45 1466.32 132.26C1486.47 125.51 1506.41 118.11 1526.56 111.4C1539.29 110.2 1552.16 111.26 1564.95 110.63C1561.12 109.03 1557.23 107.62 1553.37 106.13C1561.49 105.84 1569.44 107.77 1577.23 109.81C1574.45 102.62 1567.49 99.01 1561.33 95.31C1567.22 95.74 1572.9 97.42 1578.46 99.35C1576.48 94.69 1573.53 90.57 1570.37 86.68C1573.27 87.73 1576.38 88.62 1578.73 90.76C1581.27 93.02 1582.86 96.11 1584.53 99.05C1588.19 92.65 1594.25 87.85 1601.48 86.41C1598.24 89.98 1595.2 93.77 1592.98 98.08C1599.43 95.87 1606.39 94.93 1613.06 96.79C1606.03 98.9 1598.97 101.75 1594.01 107.47C1598.31 106.75 1602.65 105.77 1607.07 105.99C1612.06 106.18 1616.87 108.28 1621.93 107.61C1639 105.7 1656.2 104.69 1673.06 101.17C1686.63 98.79 1700.21 96.46 1713.79 94.05C1713.65 88.21 1713.57 82.37 1713.24 76.54C1709.57 75.62 1703.49 75.77 1703.14 70.68C1702.53 60.48 1702.15 50.16 1702.92 39.96C1703.21 35.68 1710.65 35.92 1710.93 40.05C1711.76 48.33 1711.05 56.68 1711.49 64.98C1711.29 66.91 1712.34 68.39 1713.94 69.37C1714.47 54.56 1713.46 39.74 1713.62 24.92C1713.56 22.09 1714.49 18.77 1717.44 17.79Z" fill="#672C44" stroke="#672C44" stroke-width="0.5"/>
<path d="M812.994 24.7617C816.997 22.9417 824.342 24.2717 823.879 29.9617C824.155 47.3717 823.485 64.7817 823.218 82.2017C825.387 81.5517 827.961 81.4317 829.666 79.7017C830.258 77.1817 830.081 74.5618 830.061 72.0018C829.795 65.3218 830.14 58.6317 829.499 51.9717C829.341 49.7317 829.075 46.8117 831.431 45.6017C833.748 43.9217 837.219 45.0617 837.584 48.0917C838.727 55.6517 838.067 63.3717 838.688 70.9917C838.698 75.2517 839.881 79.6817 838.668 83.8517C835.414 89.0417 828.464 88.1017 823.238 88.5617C823.051 92.9117 823.061 97.2717 823.218 101.642C840.334 104.962 857.48 108.162 874.596 111.522C894.097 115.762 913.599 120.032 933.072 124.402C939.342 125.712 945.78 125.332 952.149 125.592C964.276 126.042 976.413 126.002 988.55 126.372V254.322C962.758 256.362 936.986 258.692 911.144 260.042C914.171 257.632 917.494 255.312 919.406 251.812C923.212 244.852 921.743 235.732 916.892 229.682C913.895 225.882 908.729 224.162 904.095 225.362C898.012 226.912 892.648 230.842 888.872 235.862C884.8 241.302 883.558 248.162 881.339 254.452C878.224 250.842 875.177 247.162 872.17 243.462C875.976 240.932 880.068 238.292 882.099 233.972C884.928 227.882 885.194 220.742 883.686 214.252C881.763 206.482 876.568 200.242 872.821 193.352C878.145 190.042 883.844 186.682 887.235 181.162C889.779 177.142 889.69 171.722 887.344 167.642C884.07 161.712 878.51 157.672 873.235 153.722C875.167 149.242 878.007 144.992 878.668 140.072C879.092 135.132 872.19 131.442 869.074 135.802C866.067 141.222 868.315 147.792 866.846 153.602C865.91 156.172 862.725 155.772 860.625 156.402C860.97 152.092 862.193 147.582 860.812 143.362C858.998 139.122 852.027 139.652 850.726 144.002C849.356 150.082 852.974 155.622 855.675 160.742C854.305 161.712 852.964 162.692 851.633 163.672C849.573 160.822 847.739 157.762 845.254 155.282C843.696 153.492 840.788 153.802 839.131 155.232C838.165 156.822 838.53 158.942 839.24 160.592C841.36 164.862 845.787 167.362 847.946 171.602C848.853 174.972 847.906 178.722 849.533 181.932C850.736 184.512 852.244 186.942 853.625 189.432C849.533 190.382 845.451 191.362 841.389 192.402C839.151 188.922 837.455 185.052 834.833 181.842C831.589 177.952 824.382 182.102 825.604 186.892C826.659 191.972 831.678 194.282 834.665 198.002C836.903 201.012 834.419 204.612 833.354 207.572C826.571 203.192 819.087 199.472 811.003 198.642C808.084 198.302 804.742 199.172 803.263 201.942C799.349 209.642 802.612 221.552 811.752 223.412C820.28 224.792 828.02 219.642 835.75 216.792C839.644 223.142 842.927 229.982 847.975 235.522C850.568 238.412 853.704 240.702 856.809 243.002C852.106 246.752 847.423 250.702 844.357 256.012C825.742 251.592 807.019 247.632 788.405 243.202C784.836 242.332 781.247 241.502 777.589 241.402C758.561 241.032 739.522 241.562 720.523 240.862C726.429 236.382 733.439 233.942 740.518 232.112C730.57 228.272 719.626 230.092 710.102 234.262C712.803 226.732 717.753 220.442 723.057 214.622C716.372 216.272 709.993 219.492 705.172 224.542C701.83 227.882 699.513 232.052 697.265 236.182C694.899 230.182 691.852 224.162 686.676 220.172C683.649 217.532 679.764 216.402 675.969 215.532C681.46 221.572 685.789 228.652 688.224 236.532C680.05 232.722 671.364 229.782 662.284 229.652C667.894 233.072 673.888 236.032 678.512 240.872C666.514 241.142 654.525 240.572 642.545 240.732C637.882 240.762 633.731 243.072 629.511 244.752C622.767 247.422 616.152 250.542 609.063 252.162C601.432 253.942 593.929 256.242 586.238 257.702C574.19 259.972 562.103 262.052 550.094 264.482C545.125 265.542 540.057 264.872 535.108 264.212C525.662 262.952 516.119 262.472 506.782 260.512C500.422 259.242 494.063 257.982 487.733 256.632C481.985 255.382 476.099 255.962 470.292 256.062C470.923 248.702 470.884 241.292 471.594 233.952C471.722 229.002 476.612 226.762 480.023 224.222C492.555 215.932 500.866 202.102 503.942 187.392C505.658 178.732 507.068 169.852 506.565 161.012C506.496 157.112 502.759 155.182 499.476 154.552C507.807 151.532 516.582 150.152 525.14 147.972C537.366 145.002 549.7 142.422 561.866 139.232C582.019 132.482 601.964 125.082 622.107 118.372C634.835 117.172 647.712 118.232 660.499 117.602C656.674 116.002 652.779 114.592 648.924 113.102C657.039 112.812 664.985 114.742 672.784 116.782C670.004 109.592 663.043 105.982 656.881 102.282C662.767 102.712 668.446 104.392 674.007 106.322C672.025 101.662 669.077 97.5417 665.922 93.6517C668.821 94.7017 671.926 95.5917 674.283 97.7317C676.817 99.9917 678.414 103.082 680.08 106.022C683.738 99.6217 689.801 94.8217 697.028 93.3817C693.794 96.9517 690.748 100.742 688.529 105.052C694.978 102.842 701.938 101.902 708.613 103.762C701.583 105.872 694.524 108.722 689.555 114.442C693.863 113.722 698.202 112.742 702.619 112.962C707.607 113.152 712.419 115.252 717.477 114.582C734.553 112.672 751.748 111.662 768.607 108.142C782.184 105.762 795.76 103.432 809.336 101.022C809.198 95.1817 809.12 89.3417 808.794 83.5117C805.117 82.5917 799.043 82.7417 798.688 77.6517C798.077 67.4517 797.702 57.1317 798.471 46.9317C798.757 42.6517 806.201 42.8917 806.477 47.0217C807.305 55.3017 806.595 63.6517 807.039 71.9517C806.842 73.8817 807.887 75.3617 809.494 76.3417C810.017 61.5317 809.011 46.7117 809.169 31.8917C809.11 29.0617 810.036 25.7417 812.994 24.7617Z" fill="#672C44" stroke="#672C44" stroke-width="0.5"/>
<path d="M812.994 24.7617C816.997 22.9417 824.342 24.2717 823.879 29.9617C824.155 47.3717 823.485 64.7817 823.218 82.2017C825.387 81.5517 827.961 81.4317 829.666 79.7017C830.258 77.1817 830.081 74.5618 830.061 72.0018C829.795 65.3218 830.14 58.6317 829.499 51.9717C829.341 49.7317 829.075 46.8117 831.431 45.6017C833.748 43.9217 837.219 45.0617 837.584 48.0917C838.727 55.6517 838.067 63.3717 838.688 70.9917C838.698 75.2517 839.881 79.6817 838.668 83.8517C835.414 89.0417 828.464 88.1017 823.238 88.5617C823.051 92.9117 823.061 97.2717 823.218 101.642C840.334 104.962 857.48 108.162 874.596 111.522C894.097 115.762 913.599 120.032 933.072 124.402C939.342 125.712 945.78 125.332 952.149 125.592C964.276 126.042 976.413 126.002 988.55 126.372V254.322C962.758 256.362 936.986 258.692 911.144 260.042C914.171 257.632 917.494 255.312 919.406 251.812C923.212 244.852 921.743 235.732 916.892 229.682C913.895 225.882 908.729 224.162 904.095 225.362C898.012 226.912 892.648 230.842 888.872 235.862C884.8 241.302 883.558 248.162 881.339 254.452C878.224 250.842 875.177 247.162 872.17 243.462C875.976 240.932 880.068 238.292 882.099 233.972C884.928 227.882 885.194 220.742 883.686 214.252C881.763 206.482 876.568 200.242 872.821 193.352C878.145 190.042 883.844 186.682 887.235 181.162C889.779 177.142 889.69 171.722 887.344 167.642C884.07 161.712 878.51 157.672 873.235 153.722C875.167 149.242 878.007 144.992 878.668 140.072C879.092 135.132 872.19 131.442 869.074 135.802C866.067 141.222 868.315 147.792 866.846 153.602C865.91 156.172 862.725 155.772 860.625 156.402C860.97 152.092 862.193 147.582 860.812 143.362C858.998 139.122 852.027 139.652 850.726 144.002C849.356 150.082 852.974 155.622 855.675 160.742C854.305 161.712 852.964 162.692 851.633 163.672C849.573 160.822 847.739 157.762 845.254 155.282C843.696 153.492 840.788 153.802 839.131 155.232C838.165 156.822 838.53 158.942 839.24 160.592C841.36 164.862 845.787 167.362 847.946 171.602C848.853 174.972 847.906 178.722 849.533 181.932C850.736 184.512 852.244 186.942 853.625 189.432C849.533 190.382 845.451 191.362 841.389 192.402C839.151 188.922 837.455 185.052 834.833 181.842C831.589 177.952 824.382 182.102 825.604 186.892C826.659 191.972 831.678 194.282 834.665 198.002C836.903 201.012 834.419 204.612 833.354 207.572C826.571 203.192 819.087 199.472 811.003 198.642C808.084 198.302 804.742 199.172 803.263 201.942C799.349 209.642 802.612 221.552 811.752 223.412C820.28 224.792 828.02 219.642 835.75 216.792C839.644 223.142 842.927 229.982 847.975 235.522C850.568 238.412 853.704 240.702 856.809 243.002C852.106 246.752 847.423 250.702 844.357 256.012C825.742 251.592 807.019 247.632 788.405 243.202C784.836 242.332 781.247 241.502 777.589 241.402C758.561 241.032 739.522 241.562 720.523 240.862C726.429 236.382 733.439 233.942 740.518 232.112C730.57 228.272 719.626 230.092 710.102 234.262C712.803 226.732 717.753 220.442 723.057 214.622C716.372 216.272 709.993 219.492 705.172 224.542C701.83 227.882 699.513 232.052 697.265 236.182C694.899 230.182 691.852 224.162 686.676 220.172C683.649 217.532 679.764 216.402 675.969 215.532C681.46 221.572 685.789 228.652 688.224 236.532C680.05 232.722 671.364 229.782 662.284 229.652C667.894 233.072 673.888 236.032 678.512 240.872C666.514 241.142 654.525 240.572 642.545 240.732C637.882 240.762 633.731 243.072 629.511 244.752C622.767 247.422 616.152 250.542 609.063 252.162C601.432 253.942 593.929 256.242 586.238 257.702C574.19 259.972 562.103 262.052 550.094 264.482C545.125 265.542 540.057 264.872 535.108 264.212C525.662 262.952 516.119 262.472 506.782 260.512C500.422 259.242 494.063 257.982 487.733 256.632C481.985 255.382 476.099 255.962 470.292 256.062C470.923 248.702 470.884 241.292 471.594 233.952C471.722 229.002 476.612 226.762 480.023 224.222C492.555 215.932 500.866 202.102 503.942 187.392C505.658 178.732 507.068 169.852 506.565 161.012C506.496 157.112 502.759 155.182 499.476 154.552C507.807 151.532 516.582 150.152 525.14 147.972C537.366 145.002 549.7 142.422 561.866 139.232C582.019 132.482 601.964 125.082 622.107 118.372C634.835 117.172 647.712 118.232 660.499 117.602C656.674 116.002 652.779 114.592 648.924 113.102C657.039 112.812 664.985 114.742 672.784 116.782C670.004 109.592 663.043 105.982 656.881 102.282C662.767 102.712 668.446 104.392 674.007 106.322C672.025 101.662 669.077 97.5417 665.922 93.6517C668.821 94.7017 671.926 95.5917 674.283 97.7317C676.817 99.9917 678.414 103.082 680.08 106.022C683.738 99.6217 689.801 94.8217 697.028 93.3817C693.794 96.9517 690.748 100.742 688.529 105.052C694.978 102.842 701.938 101.902 708.613 103.762C701.583 105.872 694.524 108.722 689.555 114.442C693.863 113.722 698.202 112.742 702.619 112.962C707.607 113.152 712.419 115.252 717.477 114.582C734.553 112.672 751.748 111.662 768.607 108.142C782.184 105.762 795.76 103.432 809.336 101.022C809.198 95.1817 809.12 89.3417 808.794 83.5117C805.117 82.5917 799.043 82.7417 798.688 77.6517C798.077 67.4517 797.702 57.1317 798.471 46.9317C798.757 42.6517 806.201 42.8917 806.477 47.0217C807.305 55.3017 806.595 63.6517 807.039 71.9517C806.842 73.8817 807.887 75.3617 809.494 76.3417C810.017 61.5317 809.011 46.7117 809.169 31.8917C809.11 29.0617 810.036 25.7417 812.994 24.7617Z" fill="#672C44" stroke="#672C44" stroke-width="0.5"/>
<path d="M1822.59 32.7617C1826.6 30.9417 1833.94 32.2717 1833.48 37.9617C1833.75 55.3717 1833.08 72.7817 1832.82 90.2017C1834.99 89.5517 1837.56 89.4317 1839.27 87.7017C1839.86 85.1817 1839.68 82.5618 1839.66 80.0018C1839.39 73.3218 1839.74 66.6317 1839.1 59.9717C1838.94 57.7317 1838.67 54.8117 1841.03 53.6017C1843.35 51.9217 1846.82 53.0617 1847.18 56.0917C1848.33 63.6517 1847.67 71.3717 1848.29 78.9917C1848.3 83.2517 1849.48 87.6817 1848.27 91.8517C1845.01 97.0417 1838.06 96.1017 1832.84 96.5617C1832.65 100.912 1832.66 105.272 1832.82 109.642C1849.93 112.962 1867.08 116.162 1884.2 119.522C1903.7 123.762 1923.2 128.032 1942.67 132.402C1948.94 133.712 1955.38 133.332 1961.75 133.592C1973.88 134.042 1986.01 134.002 1998.15 134.372V262.322C1972.36 264.362 1946.59 266.692 1920.74 268.042C1923.77 265.632 1927.09 263.312 1929.01 259.812C1932.81 252.852 1931.34 243.732 1926.49 237.682C1923.49 233.882 1918.33 232.162 1913.69 233.362C1907.61 234.912 1902.25 238.842 1898.47 243.862C1894.4 249.302 1893.16 256.162 1890.94 262.452C1887.82 258.842 1884.78 255.162 1881.77 251.462C1885.58 248.932 1889.67 246.292 1891.7 241.972C1894.53 235.882 1894.79 228.742 1893.29 222.252C1891.36 214.482 1886.17 208.242 1882.42 201.352C1887.74 198.042 1893.44 194.682 1896.84 189.162C1899.38 185.142 1899.29 179.722 1896.94 175.642C1893.67 169.712 1888.11 165.672 1882.83 161.722C1884.77 157.242 1887.61 152.992 1888.27 148.072C1888.69 143.132 1881.79 139.442 1878.67 143.802C1875.67 149.222 1877.92 155.792 1876.45 161.602C1875.51 164.172 1872.32 163.772 1870.22 164.402C1870.57 160.092 1871.79 155.582 1870.41 151.362C1868.6 147.122 1861.63 147.652 1860.33 152.002C1858.96 158.082 1862.57 163.622 1865.28 168.742C1863.9 169.712 1862.56 170.692 1861.23 171.672C1859.17 168.822 1857.34 165.762 1854.85 163.282C1853.3 161.492 1850.39 161.802 1848.73 163.232C1847.77 164.822 1848.13 166.942 1848.84 168.592C1850.96 172.862 1855.39 175.362 1857.55 179.602C1858.45 182.972 1857.51 186.722 1859.13 189.932C1860.34 192.512 1861.84 194.942 1863.22 197.432C1859.13 198.382 1855.05 199.362 1850.99 200.402C1848.75 196.922 1847.06 193.052 1844.43 189.842C1841.19 185.952 1833.98 190.102 1835.2 194.892C1836.26 199.972 1841.28 202.282 1844.26 206.002C1846.5 209.012 1844.02 212.612 1842.95 215.572C1836.17 211.192 1828.69 207.472 1820.6 206.642C1817.68 206.302 1814.34 207.172 1812.86 209.942C1808.95 217.642 1812.21 229.552 1821.35 231.412C1829.88 232.792 1837.62 227.642 1845.35 224.792C1849.24 231.142 1852.53 237.982 1857.58 243.522C1860.17 246.412 1863.3 248.702 1866.41 251.002C1861.71 254.752 1857.02 258.702 1853.96 264.012C1835.34 259.592 1816.62 255.632 1798 251.202C1794.44 250.332 1790.85 249.502 1787.19 249.402C1768.16 249.032 1749.12 249.562 1730.12 248.862C1736.03 244.382 1743.04 241.942 1750.12 240.112C1740.17 236.272 1729.23 238.092 1719.7 242.262C1722.4 234.732 1727.35 228.442 1732.66 222.622C1725.97 224.272 1719.59 227.492 1714.77 232.542C1711.43 235.882 1709.11 240.052 1706.86 244.182C1704.5 238.182 1701.45 232.162 1696.28 228.172C1693.25 225.532 1689.36 224.402 1685.57 223.532C1691.06 229.572 1695.39 236.652 1697.82 244.532C1689.65 240.722 1680.96 237.782 1671.88 237.652C1677.49 241.072 1683.49 244.032 1688.11 248.872C1676.11 249.142 1664.12 248.572 1652.15 248.732C1647.48 248.762 1643.33 251.072 1639.11 252.752C1632.37 255.422 1625.75 258.542 1618.66 260.162C1611.03 261.942 1603.53 264.242 1595.84 265.702C1583.79 267.972 1571.7 270.052 1559.69 272.482C1554.72 273.542 1549.66 272.872 1544.71 272.212C1535.26 270.952 1525.72 270.472 1516.38 268.512C1510.02 267.242 1503.66 265.982 1497.33 264.632C1491.59 263.382 1485.7 263.962 1479.89 264.062C1480.52 256.702 1480.48 249.292 1481.19 241.952C1481.32 237.002 1486.21 234.762 1489.62 232.222C1502.15 223.932 1510.47 210.102 1513.54 195.392C1515.26 186.732 1516.67 177.852 1516.16 169.012C1516.1 165.112 1512.36 163.182 1509.08 162.552C1517.41 159.532 1526.18 158.152 1534.74 155.972C1546.97 153.002 1559.3 150.422 1571.47 147.232C1591.62 140.482 1611.56 133.082 1631.71 126.372C1644.44 125.172 1657.31 126.232 1670.1 125.602C1666.27 124.002 1662.38 122.592 1658.52 121.102C1666.64 120.812 1674.59 122.742 1682.38 124.782C1679.6 117.592 1672.64 113.982 1666.48 110.282C1672.37 110.712 1678.05 112.392 1683.61 114.322C1681.62 109.662 1678.68 105.542 1675.52 101.652C1678.42 102.702 1681.53 103.592 1683.88 105.732C1686.42 107.992 1688.01 111.082 1689.68 114.022C1693.34 107.622 1699.4 102.822 1706.63 101.382C1703.39 104.952 1700.35 108.742 1698.13 113.052C1704.58 110.842 1711.54 109.902 1718.21 111.762C1711.18 113.872 1704.12 116.722 1699.15 122.442C1703.46 121.722 1707.8 120.742 1712.22 120.962C1717.21 121.152 1722.02 123.252 1727.08 122.582C1744.15 120.672 1761.35 119.662 1778.21 116.142C1791.78 113.762 1805.36 111.432 1818.94 109.022C1818.8 103.182 1818.72 97.3417 1818.39 91.5117C1814.72 90.5917 1808.64 90.7417 1808.29 85.6517C1807.68 75.4517 1807.3 65.1317 1808.07 54.9317C1808.36 50.6517 1815.8 50.8917 1816.08 55.0217C1816.91 63.3017 1816.2 71.6517 1816.64 79.9517C1816.44 81.8817 1817.49 83.3617 1819.09 84.3417C1819.62 69.5317 1818.61 54.7117 1818.77 39.8917C1818.71 37.0617 1819.64 33.7417 1822.59 32.7617Z" fill="#672C44" stroke="#672C44" stroke-width="0.5"/>
<path d="M729.751 117.88C734.021 119.69 738.27 121.54 742.529 123.38C741.879 150.77 742.519 178.24 739.877 205.54C735.411 195.71 734.938 184.67 734.632 174.02C734.514 155.23 733.725 136.3 729.751 117.88Z" fill="#672C44" stroke="#672C44" stroke-width="0.5"/>
<path d="M143.414 130.06C146.353 131.03 149.439 131.91 151.884 133.93C155.137 136.49 157.05 140.28 158.933 143.91C162.828 136.53 169.838 131.25 177.903 129.55C174.205 133.54 170.676 137.74 168.309 142.71C175.467 140 183.325 138.96 190.749 141.26C182.596 143.34 174.57 146.9 169.029 153.55C178.721 150.37 189.428 150.51 198.795 154.76C192.77 155.52 186.658 156.18 181.008 158.58C206.652 160.9 232.405 161.93 258.069 164.12C258.138 172.09 258.306 180.06 258.325 188.03C258.325 196.93 259.686 205.8 259.262 214.72C255.831 205.49 255.447 195.52 253.425 185.96C252.854 183.07 251.552 180.06 248.801 178.71C246.948 177.61 243.822 176.58 242.472 178.95C240.874 182.36 241.269 186.3 241.318 189.97C242.166 203.75 242.974 217.54 244.079 231.31C244.552 236.72 245.153 242.52 248.476 247.01C250.891 250.42 255.052 251.63 258.207 254.12C260.307 255.7 260.278 258.61 260.514 261C260.81 266.97 260.948 272.95 261.224 278.93C252.676 279.33 244.148 279.96 235.59 280.17C230.029 280.09 225.277 283.31 220.456 285.67C205.252 293.25 189.961 300.65 174.787 308.29C172.214 309.86 169.295 308.58 166.702 307.8C150.099 302.21 133.328 297.17 116.705 291.66C108.088 288.64 98.8599 288.82 89.9964 287.05C98.6036 279.12 110.445 276.69 121.714 276.19C109.942 269.82 95.5965 269.43 83.2033 274.19C89.9076 265.11 100.161 259.56 110.908 257.07C101.611 253.32 91.2682 255.09 82.3652 259.07C85.0371 252 89.5921 245.95 94.7387 240.54C83.8934 242.76 74.8031 250.68 70.4058 260.89C67.0832 251.77 60.4971 242.62 50.2532 241.46C55.39 247.16 59.521 253.77 61.769 261.2C54.0294 257.45 45.6982 254.7 37.0318 254.74C42.7798 257.92 48.7349 261.05 53.2702 265.97C56.4055 269.11 58.4266 273.12 60.2112 277.16C49.1391 273.49 37.5938 270.97 25.8907 271.02C33.443 274.61 41.6066 276.9 48.6166 281.61C38.3135 282.02 28.0203 282.46 17.7173 282.91C11.358 283.14 5.70858 286.5 0 288.98V148.12C45.0869 150.71 90.1837 153.26 135.28 155.69C131.494 154.21 127.669 152.83 123.922 151.27C133.131 151.45 142.231 153.17 151.085 155.7C149.458 152.81 147.792 149.87 145.337 147.6C141.817 144.29 137.41 142.24 133.338 139.75C139.885 139.82 146.145 141.83 152.189 144.17C150.168 138.93 146.875 134.4 143.414 130.06Z" fill="#662C44" stroke="#662C44" stroke-width="0.5"/>
<path d="M289.333 131.51C292.271 132.48 295.357 133.36 297.803 135.38C301.056 137.94 302.969 141.73 304.852 145.36C308.747 137.98 315.757 132.7 323.821 131C320.124 134.99 316.595 139.19 314.228 144.16C321.386 141.45 329.244 140.41 336.668 142.71C328.515 144.79 320.489 148.35 314.948 155C324.64 151.82 335.347 151.96 344.713 156.21C338.689 156.97 332.577 157.63 326.927 160.03C352.571 162.35 378.324 163.38 403.988 165.57C404.057 173.54 404.225 181.51 404.244 189.48C404.244 198.38 405.605 207.25 405.181 216.17C401.75 206.94 401.365 196.97 399.344 187.41C398.772 184.52 397.471 181.51 394.72 180.16C392.867 179.06 389.741 178.03 388.391 180.4C386.793 183.81 387.188 187.75 387.237 191.42C388.085 205.2 388.893 218.99 389.998 232.76C390.471 238.17 391.072 243.97 394.395 248.46C396.81 251.87 400.971 253.08 404.126 255.57C406.226 257.15 406.197 260.06 406.433 262.45C406.729 268.42 406.867 274.4 407.143 280.38C398.595 280.78 390.067 281.41 381.509 281.62C375.948 281.54 371.196 284.76 366.375 287.12C351.171 294.7 335.879 302.1 320.706 309.74C318.133 311.31 315.214 310.03 312.621 309.25C296.018 303.66 279.247 298.62 262.624 293.11C254.007 290.09 244.779 290.27 235.915 288.5C244.523 280.57 256.364 278.14 267.633 277.64C255.861 271.27 241.515 270.88 229.122 275.64C235.827 266.56 246.08 261.01 256.827 258.52C247.53 254.77 237.187 256.54 228.284 260.52C230.956 253.45 235.511 247.4 240.658 241.99C229.812 244.21 220.722 252.13 216.325 262.34C213.002 253.22 206.416 244.07 196.172 242.91C201.309 248.61 205.44 255.22 207.688 262.65C199.948 258.9 191.617 256.15 182.951 256.19C188.699 259.37 194.654 262.5 199.189 267.42C202.324 270.56 204.346 274.57 206.13 278.61C195.058 274.94 183.513 272.42 171.81 272.47C179.362 276.06 187.525 278.35 194.536 283.06C184.232 283.47 173.939 283.91 163.636 284.36C157.277 284.59 151.628 287.95 145.919 290.43V149.57C191.006 152.16 236.103 154.71 281.199 157.14C277.413 155.66 273.588 154.28 269.841 152.72C279.05 152.9 288.15 154.62 297.004 157.15C295.377 154.26 293.711 151.32 291.256 149.05C287.736 145.74 283.329 143.69 279.257 141.2C285.804 141.27 292.064 143.28 298.108 145.62C296.087 140.38 292.794 135.85 289.333 131.51Z" fill="#662C44" stroke="#662C44" stroke-width="0.5"/>
<path d="M1167.8 131.51C1170.74 132.48 1173.83 133.36 1176.27 135.38C1179.53 137.94 1181.44 141.73 1183.32 145.36C1187.22 137.98 1194.23 132.7 1202.29 131C1198.59 134.99 1195.06 139.19 1192.7 144.16C1199.86 141.45 1207.71 140.41 1215.14 142.71C1206.98 144.79 1198.96 148.35 1193.42 155C1203.11 151.82 1213.82 151.96 1223.18 156.21C1217.16 156.97 1211.05 157.63 1205.4 160.03C1231.04 162.35 1256.79 163.38 1282.46 165.57C1282.53 173.54 1282.69 181.51 1282.71 189.48C1282.71 198.38 1284.08 207.25 1283.65 216.17C1280.22 206.94 1279.84 196.97 1277.81 187.41C1277.24 184.52 1275.94 181.51 1273.19 180.16C1271.34 179.06 1268.21 178.03 1266.86 180.4C1265.26 183.81 1265.66 187.75 1265.71 191.42C1266.56 205.2 1267.36 218.99 1268.47 232.76C1268.94 238.17 1269.54 243.97 1272.87 248.46C1275.28 251.87 1279.44 253.08 1282.6 255.57C1284.7 257.15 1284.67 260.06 1284.9 262.45C1285.2 268.42 1285.34 274.4 1285.61 280.38C1277.07 280.78 1268.54 281.41 1259.98 281.62C1254.42 281.54 1249.67 284.76 1244.84 287.12C1229.64 294.7 1214.35 302.1 1199.18 309.74C1196.6 311.31 1193.68 310.03 1191.09 309.25C1174.49 303.66 1157.72 298.62 1141.09 293.11C1132.48 290.09 1123.25 290.27 1114.39 288.5C1122.99 280.57 1134.83 278.14 1146.1 277.64C1134.33 271.27 1119.99 270.88 1107.59 275.64C1114.3 266.56 1124.55 261.01 1135.3 258.52C1126 254.77 1115.66 256.54 1106.75 260.52C1109.43 253.45 1113.98 247.4 1119.13 241.99C1108.28 244.21 1099.19 252.13 1094.79 262.34C1091.47 253.22 1084.89 244.07 1074.64 242.91C1079.78 248.61 1083.91 255.22 1086.16 262.65C1078.42 258.9 1070.09 256.15 1061.42 256.19C1067.17 259.37 1073.12 262.5 1077.66 267.42C1080.79 270.56 1082.82 274.57 1084.6 278.61C1073.53 274.94 1061.98 272.42 1050.28 272.47C1057.83 276.06 1066 278.35 1073.01 283.06C1062.7 283.47 1052.41 283.91 1042.11 284.36C1035.75 284.59 1030.1 287.95 1024.39 290.43V149.57C1069.48 152.16 1114.57 154.71 1159.67 157.14C1155.88 155.66 1152.06 154.28 1148.31 152.72C1157.52 152.9 1166.62 154.62 1175.47 157.15C1173.85 154.26 1172.18 151.32 1169.73 149.05C1166.21 145.74 1161.8 143.69 1157.73 141.2C1164.27 141.27 1170.53 143.28 1176.58 145.62C1174.56 140.38 1171.26 135.85 1167.8 131.51Z" fill="#662C44" stroke="#662C44" stroke-width="0.5"/>
<path d="M1367.27 162.32C1370.53 161.96 1373.83 161.59 1377.11 161.2C1376.06 166.75 1375.66 172.42 1374.35 177.91C1373.64 181.17 1371.28 183.62 1369.19 186.04C1367.9 178.2 1367.21 170.27 1367.27 162.32Z" fill="#672C44" stroke="#672C44" stroke-width="0.5"/>
<path d="M304.576 161.91C306.735 161.89 308.904 161.88 311.073 161.89C309.457 173.83 308.254 185.84 306.282 197.73C305.868 200.09 305.187 202.41 304.34 204.65C303.679 190.43 302.979 176.09 304.576 161.91Z" fill="#672C44" stroke="#672C44" stroke-width="0.5"/>
<path d="M272.129 163.78C273.006 163.84 274.761 163.96 275.639 164.02C275.53 168.99 275.52 173.97 274.988 178.92C273.391 174.01 272.858 168.86 272.129 163.78Z" fill="#672C44" stroke="#672C44" stroke-width="0.5"/>
<path d="M1319.87 169.07C1326.35 167.76 1332.89 166.71 1339.47 165.99C1338.01 179.78 1336.3 193.54 1335.79 207.41C1333.02 205.55 1330.12 203.73 1328.11 201.01C1325.4 197.46 1324.47 192.96 1323.59 188.67C1322.35 182.14 1321.23 175.58 1319.87 169.07Z" fill="#672C44" stroke="#672C44" stroke-width="0.5"/>
<path d="M1893 186H0V442H1893V186Z" fill="#672C44"/>
</g>
<path d="M77.7345 162.699C79.6191 162.426 72.3855 158.217 71.446 157.793C69.6799 156.997 67.8132 156.782 66.125 155.831C63.5816 154.397 60.7903 155.787 58.3854 154.631C52.4739 151.791 47.5782 149.76 41.9386 147.217C38.681 145.749 34.704 145.78 31.2966 144.546C28.2559 143.445 26.2626 141.365 23.5569 139.912C20.4773 138.259 20.197 137.187 16.3547 137.187C13.2731 137.187 10.1917 137.187 7.11011 137.187" stroke="#672C44" stroke-width="33" stroke-linecap="round"/>
<path d="M3.48406 124.245C2.60816 123.246 1.57381 123.699 1.12402 122.33" stroke="#672C44" stroke-width="3" stroke-linecap="round"/>
<path d="M7.15403 122.025C6.86352 121.764 6.1584 121.725 5.77319 121.725" stroke="#672C44" stroke-width="5" stroke-linecap="round"/>
<path d="M4.98595 121.525C4.69858 121.525 4.47412 121.325 4.19604 121.325" stroke="#672C44" stroke-width="5" stroke-linecap="round"/>
<path d="M2.42297 121.625C2.2482 121.625 2.14138 121.641 2.02734 121.525" stroke="#672C44" stroke-width="5" stroke-linecap="round"/>
<path d="M1.4372 121.425C1.3189 121.411 1.3372 121.325 1.3372 121.225" stroke="#672C44" stroke-width="5" stroke-linecap="round"/>
<path d="M1881.22 119.586C1882.3 119.586 1883.56 119.613 1884.57 120.05C1885.32 120.375 1886.25 120.681 1887.04 120.771C1887.55 120.827 1888.01 120.851 1888.51 120.851C1888.73 120.851 1889.09 120.784 1889.28 120.87C1889.75 121.066 1890.52 120.901 1890.69 121.441" stroke="#672C44" stroke-width="5" stroke-linecap="round"/>
<path d="M1880.39 118.996C1880.06 118.706 1879.64 118.775 1879.25 118.696C1878.93 118.635 1878.63 118.527 1878.31 118.49C1877.11 118.347 1875.87 118.119 1874.65 117.9C1872.37 117.49 1870.09 117.227 1867.84 116.719" stroke="#672C44" stroke-width="5" stroke-linecap="round"/>
<path d="M1868.01 120.671C1865.65 120.089 1862.85 119.204 1860.42 119.204C1859.41 119.204 1857.69 119.602 1857.24 118.389C1856.26 115.823 1852.93 116.269 1850.64 116.269C1850.45 116.269 1848.99 116.267 1849.28 115.739C1849.7 115.007 1853.64 115.515 1854.46 115.536C1855.97 115.573 1857.01 116.842 1858.52 117.085C1860.4 117.386 1861.68 117.327 1863.3 118.103C1864.44 118.644 1865.76 119.177 1866.92 119.571" stroke="#672C44" stroke-width="5" stroke-linecap="round"/>
<path d="M1864.03 119.204H1867.64" stroke="#672C44" stroke-width="5" stroke-linecap="round"/>
<path d="M1864.75 119.204H1868.01" stroke="#672C44" stroke-width="5" stroke-linecap="round"/>
<path d="M1868.73 121.405C1868.64 119.555 1868.47 117.737 1866.56 117.737C1864.81 117.737 1863.16 117.908 1861.5 118.47" stroke="#672C44" stroke-width="5" stroke-linecap="round"/>
<path d="M1862.22 119.204C1863.49 119.204 1867.52 119.98 1867.27 118.103C1866.88 115.4 1860.83 117.596 1859.33 118.103" stroke="#672C44" stroke-width="5" stroke-linecap="round"/>
<path d="M1893 275H0V421H1893V275Z" fill="#672C44" stroke="#672C44"/>
</g>
</g>
<defs>
<clipPath id="clip0_9_759">
<rect width="1893" height="422" fill="white"/>
</clipPath>
</defs>
</svg>
