<svg width="1889" height="547" viewBox="0 0 1889 547" fill="none" xmlns="http://www.w3.org/2000/svg">
<g clip-path="url(#clip0_8_493)">
<path d="M1757.21 0.810059C1761.25 3.65006 1765.4 6.42007 1770.09 8.10007C1769.83 8.61007 1769.31 9.64006 1769.04 10.1601C1771.82 12.7001 1774.96 15.1901 1778.92 15.3101C1784.03 16.3201 1790.45 14.2301 1794.38 18.5901C1798.65 24.0201 1797.94 31.4301 1796.84 37.8301C1817.62 36.6101 1838.45 36.2701 1859.24 35.2201C1869.15 34.7201 1879.08 35.2801 1889 35.6201V289.4C1876.69 289.03 1864.38 289.07 1852.08 288.62C1845.62 288.36 1839.09 288.74 1832.73 287.43C1812.98 283.06 1793.2 278.79 1773.42 274.55C1756.06 271.19 1738.67 267.99 1721.31 264.67C1721.15 260.3 1721.14 255.94 1721.33 251.59C1726.63 251.13 1733.68 252.07 1736.98 246.88C1738.21 242.71 1737.01 238.28 1737 234.02C1736.37 226.4 1737.04 218.68 1735.88 211.12C1735.51 208.09 1731.99 206.95 1729.64 208.63C1727.25 209.84 1727.52 212.76 1727.68 215C1728.33 221.66 1727.98 228.35 1728.25 235.03C1728.27 237.59 1728.45 240.21 1727.85 242.73C1726.12 244.46 1723.51 244.58 1721.31 245.23C1721.58 227.81 1722.26 210.4 1721.98 192.99C1722.45 187.3 1715 185.97 1710.94 187.79C1707.94 188.77 1707 192.09 1707.06 194.92C1706.9 209.74 1707.92 224.56 1707.39 239.37C1705.76 238.39 1704.7 236.91 1704.9 234.98C1704.45 226.68 1705.17 218.33 1704.33 210.05C1704.05 205.92 1696.5 205.68 1696.21 209.96C1695.43 220.16 1695.81 230.48 1696.43 240.68C1696.79 245.77 1702.95 245.62 1706.68 246.54C1707.01 252.37 1707.09 258.21 1707.23 264.05C1693.46 266.46 1679.69 268.79 1665.92 271.17C1648.82 274.69 1631.38 275.7 1614.06 277.61C1608.93 278.28 1604.05 276.18 1598.99 275.99C1594.51 275.77 1590.11 276.75 1585.74 277.47C1590.78 271.75 1597.94 268.9 1605.07 266.79C1598.3 264.93 1591.24 265.87 1584.7 268.08C1586.95 263.77 1590.04 259.98 1593.32 256.41C1585.99 257.85 1579.84 262.65 1576.13 269.05C1574.44 266.11 1572.82 263.02 1570.25 260.76C1567.86 258.62 1564.71 257.73 1561.77 256.68C1564.97 260.57 1567.96 264.69 1569.97 269.35C1564.33 267.42 1558.57 265.74 1552.6 265.31C1558.85 269.01 1565.91 272.62 1568.73 279.81C1560.82 277.77 1552.76 275.84 1544.53 276.13C1548.44 277.62 1552.39 279.03 1556.27 280.63C1543.3 281.26 1530.24 280.2 1517.33 281.4C1496.9 288.11 1476.67 295.51 1456.23 302.26C1443.89 305.45 1431.38 308.03 1418.98 311C1410.3 313.18 1401.4 314.56 1392.95 317.58C1390.35 318.29 1387.72 318.89 1385.1 319.43C1386.39 308.64 1387.93 297.74 1386.82 286.87C1386.43 284.19 1385.96 280.6 1382.94 279.69C1380.12 278.77 1377.43 280.73 1375.86 282.9C1372.01 287.78 1371.65 294.21 1370.64 300.1C1368.98 310.46 1367.39 320.84 1365.75 331.2C1362.42 331.59 1359.08 331.96 1355.77 332.32C1355.46 292.17 1352.96 252.07 1351.59 211.95C1351.43 206.33 1351.04 199.61 1345.88 196.16C1342.85 193.81 1338.1 195.15 1336.36 198.43C1334.26 202.27 1334.28 206.79 1333.85 211.03C1331.86 234 1329.14 256.95 1328.75 280.03C1328.3 298.68 1329.03 317.37 1327.57 335.99C1320.9 336.71 1314.27 337.76 1307.7 339.07C1304.93 325.53 1302.26 311.87 1302.1 298C1302.07 293.23 1300.47 288.33 1297.02 284.94C1294.71 282.62 1290.89 282.63 1288.22 284.3C1282.12 287.84 1278.35 294.91 1278.74 301.96C1279.43 315.66 1283.04 328.96 1285.87 342.33C1266.05 345.07 1246.65 350.24 1226.9 353.4C1231.45 348.71 1237.71 346.68 1243.65 344.43C1237.3 343.2 1230.8 343.78 1224.7 345.83C1226.91 341.74 1229.83 338.12 1233.02 334.76C1226.14 336.38 1220.19 340.67 1216.64 346.8C1215.05 344.01 1213.55 341.07 1211.09 338.95C1208.94 337.05 1206.13 336.26 1203.51 335.32C1206.38 339.04 1209.1 342.91 1211.06 347.21C1205.76 345.23 1200.29 343.74 1194.65 343.28C1199.54 346.15 1204.77 348.83 1208.14 353.59C1196.68 350.14 1185.58 345.59 1174.26 341.71C1149.75 333.35 1126 323.01 1101.83 313.76C1103.13 308.64 1105.08 303.4 1104.27 298.05C1103.75 294.26 1100.79 291.58 1098.43 288.84C1102.38 285.28 1107.43 281.78 1108.04 276.02C1109.1 271.9 1104.83 267.55 1107.81 263.85C1111.69 257.85 1113.84 250.66 1113.27 243.49C1111.86 244 1110.37 244.31 1109.14 245.15C1106.15 251.25 1106.11 258.34 1103.37 264.53C1100.7 266.84 1096.44 267.57 1095.11 271.26C1093.06 276.44 1094.22 282.16 1094.52 287.56C1092.92 288.41 1091.34 289.27 1089.76 290.14C1088.28 285.35 1087.95 279.6 1083.73 276.27C1080.92 273.85 1076.26 272.64 1073.14 275.09C1069.89 277.95 1071.21 283.28 1074.31 285.72C1077.78 288.42 1082.09 289.67 1086.09 291.37C1085.69 292.24 1085.29 293.12 1084.91 294C1081.66 291.75 1077.79 288.75 1073.63 290.57C1070.79 291.34 1069.5 295.18 1071.7 297.31C1074.61 300.14 1078.97 298.53 1082.53 298.28C1082.28 300.73 1082.04 303.19 1081.82 305.67C1058.58 299.94 1035.29 294.42 1012 288.91C1003.64 287.11 995.42 284.6 986.98 283.21C973.02 282.14 959.02 281.69 945.04 280.91C945.69 274.76 946.19 268.59 946.99 262.46C949.29 261.83 952.36 262.06 953.72 259.67C955.88 256.43 956.73 252.56 957.78 248.87C959.64 241.35 961.52 233.73 961.91 225.97C962.48 221.96 955.54 221.38 954.99 225.12C954.09 228.81 954.07 232.65 953.76 236.43C952.96 233.22 952.55 229.63 950.01 227.25C947.84 227.83 947.6 230.16 947.24 232.01C946.44 237.49 946.31 243.1 944.72 248.44C943.94 242.44 944.08 236.38 943.56 230.36C942.87 221.25 941.84 212.15 942.09 203C942.28 193.5 943.5 184.04 943.21 174.53C959.58 167.47 975.55 159.51 991.82 152.23C991.68 150.7 991.65 149.15 991.27 147.67C990.15 146.25 988.45 145.46 987 144.47C987.45 142.99 987.92 141.52 988.4 140.05C989.57 140.26 990.75 140.48 991.94 140.71C990.16 138.66 988.38 136.61 986.65 134.54C988.1 134.14 989.53 133.12 991.11 133.45C991.6 134.43 992.07 135.42 992.53 136.45C993.1 135.46 993.69 134.49 994.28 133.53C994.98 135.84 995.69 138.16 996.4 140.48C996.59 139.52 996.97 137.61 997.16 136.66C997.49 136.69 998.15 136.76 998.48 136.8C998.57 139.36 999.06 141.88 999.91 144.3C998.45 145.37 997.02 146.47 995.59 147.57C997.54 147.55 999.51 147.52 1001.46 147.23C1013.19 144.85 1025.12 143.75 1036.98 142.17C1046.18 141.62 1053.38 135.22 1061.34 131.32C1068.35 126.6 1077.05 126.82 1085.03 125.17C1097.85 122.34 1110.99 124.58 1123.95 124.76C1132.85 124.78 1141.73 125.95 1150.63 125.48C1148.74 124.26 1146.65 123.42 1144.53 122.77C1144.48 119.43 1145.01 116.12 1145.82 112.9C1146.4 113.16 1147.55 113.69 1148.13 113.95C1148.27 116.57 1148.6 119.2 1149.41 121.71C1150.07 117.32 1149.95 112.87 1149.77 108.45C1148.1 107.91 1146.46 107.38 1144.82 106.85C1145.08 104.06 1145.02 100.88 1147.74 99.2501C1147.78 101.17 1147.59 103.14 1147.89 105.06C1148.81 105.83 1149.84 106.49 1150.85 107.18C1151 103.16 1151.02 99.1301 1151.08 95.1201C1152.32 95.0601 1153.58 95.0201 1154.84 94.9901C1155.36 99.0001 1155.82 103.02 1156.08 107.06C1156.32 110.04 1156.31 113.27 1158.25 115.75C1158.82 113.42 1159.25 111.06 1160 108.79C1163.81 108.23 1163.62 113.23 1162.51 115.55C1161.12 116.44 1159.57 117.03 1158.1 117.73C1157.98 120.5 1157.9 123.27 1157.83 126.05C1171.86 126.93 1185.93 126.82 1199.97 127.41C1212.28 127.14 1223.98 131.51 1235.87 134.1C1234.85 133.08 1233.85 132.05 1232.86 131.04C1234.97 131.61 1237.08 132.2 1239.2 132.8C1238.35 130.89 1237.51 128.96 1236.75 127.02C1238.83 128.52 1240.68 130.31 1242.29 132.32C1244.25 130.07 1246.6 128.22 1249.24 126.81C1248.28 128.52 1247.29 130.2 1246.28 131.87C1248.89 131.65 1251.53 131.6 1254.16 131.73C1251.48 133.18 1248.89 134.78 1246.43 136.57C1255.48 141.26 1264.64 145.73 1273.68 150.44C1282.21 155.05 1291.82 156.95 1300.93 160.06C1308.79 162.78 1317.17 164.27 1324.43 168.52C1333.37 173.67 1342.44 178.59 1351.38 183.73C1353.99 185.27 1356.98 185.92 1359.99 186.15C1371.03 187.1 1382.06 188.21 1393.1 189.3C1402.4 190.2 1411.71 188.84 1421.03 188.82C1418.63 188.03 1416.08 187.47 1414.01 185.98C1412.45 180.28 1413.35 174.25 1413.56 168.44C1415.38 168.49 1417.23 168.57 1419.09 168.64C1419.14 174.36 1419.11 180.08 1419.05 185.79C1419.89 186.16 1420.75 186.52 1421.63 186.89C1421.88 174.51 1421.4 162.12 1421.93 149.75C1423.92 150.15 1427.66 148.9 1427.79 151.98C1428.33 161.92 1427.69 171.91 1428.01 181.86C1429.32 181.19 1430.64 180.53 1431.98 179.88C1432.01 174.44 1432.02 169.01 1431.94 163.59C1433.3 163.57 1434.68 163.56 1436.08 163.56C1435.83 169.26 1436.58 175.02 1435.68 180.68C1433.56 182.55 1430.57 182.78 1427.98 183.57C1427.97 185.2 1427.97 186.84 1428 188.49C1441.99 187.75 1456 187.19 1470.01 186.6C1476.36 186.19 1483.05 186.75 1488.97 183.93C1493.6 181.84 1498.36 180.05 1502.99 177.94C1509.94 174.66 1514.5 167.94 1521.36 164.53C1531.65 160.73 1542.21 157.55 1553.08 155.88C1556.32 155.28 1559.66 154.46 1562.29 152.32C1569.04 147.07 1575.83 141.85 1582.63 136.66C1587.57 132.52 1593.27 129.25 1597.75 124.59C1596.69 120.24 1593.01 117.14 1591.02 113.23C1592.2 112.65 1593.5 112.33 1594.77 111.87C1595.57 111.15 1596.37 110.43 1597.22 109.72C1598.01 110.43 1598.84 111.15 1599.68 111.88C1599.2 113.85 1598.84 115.86 1598.88 117.91C1600.67 115.4 1601.49 112.41 1602.77 109.64C1603.59 108.42 1604.63 108.28 1605.89 109.24C1605.39 112.97 1602.99 116.31 1603.88 120.26C1613.4 113.38 1622.38 105.75 1632.1 99.1301C1637.87 95.1801 1643.61 91.1901 1649.38 87.2301C1655.76 82.7001 1662.69 78.8001 1668.24 73.2001C1675.12 66.4201 1682.23 59.8801 1689.07 53.0501C1690.89 51.1901 1693.05 49.4201 1695.8 49.2901C1719.39 46.2701 1742.94 42.9401 1766.52 39.8801C1766.08 35.7401 1766.29 31.3801 1764.54 27.5201C1760.85 20.5801 1760.22 12.3001 1755.05 6.10007C1755.75 6.06007 1757.15 5.97005 1757.85 5.93005C1757.62 4.22005 1757.4 2.51006 1757.21 0.810059ZM1770.97 29.2901C1769.57 32.5401 1769.02 36.0401 1768.98 39.5601C1775.06 38.5501 1781.22 38.0401 1787.4 38.0401C1785.09 35.4401 1783.3 32.4201 1782.41 29.0501C1778.59 29.1801 1774.78 29.3201 1770.97 29.2901Z" fill="#AD3059" stroke="#AD3059" stroke-width="0.5"/>
<path d="M394.54 139.09C394.57 137.55 396.12 136.97 397.1 136.09C396.5 143.2 396.53 150.36 397.58 157.43C398.68 153.75 399.52 149.99 400.19 146.21C400.94 146.12 402.44 145.92 403.2 145.83C402.82 151.9 400.87 157.68 399.39 163.53C404.33 162.04 407.35 157.56 408.71 152.81C409.71 150.45 409.67 147.38 411.88 145.75C413.44 150.35 411.47 155.3 409.41 159.42C407.47 163.42 403.1 164.96 399.2 166.36C399.12 167.09 398.97 168.57 398.89 169.3C415.31 168.77 431.68 167.32 448.09 166.69C461.86 167.11 475.57 169.16 488.99 172.24C496.21 175.05 500.36 182.84 507.92 185.08C513.01 186.54 518.19 187.7 523.26 189.28C521.85 215.16 523.06 241.07 522.69 266.96C518.67 263.57 517.45 258.34 514.82 254.02C513.4 251.45 508.32 251.8 508.05 255.01C508.26 259.58 510.24 263.86 512.16 267.94C513.79 271.55 517.47 273.34 520.51 275.56C522.24 276.46 522.03 278.65 522.61 280.25C518.41 279.31 513.8 278.54 510.63 275.35C507.32 272.1 506.64 266.94 503 264C501.35 263.71 499.41 264.25 498.78 265.96C497.05 270.1 499.65 274.7 503.03 277.14C507.86 280.94 514.16 281.45 519.88 283.03C521.9 283.17 522.21 285.35 522.98 286.81C512.31 287.96 501.61 288.89 490.93 289.94C486.12 290.34 481.81 292.62 477.43 294.44C462.86 300.51 448.24 306.45 433.69 312.55C425.09 316.36 415.63 317.27 406.58 319.51C395.71 321.58 385.03 324.92 373.92 325.57C359.95 326.65 346 327.99 332.02 329.02C320.72 329.85 309.38 330.05 298.09 331.05C298.23 327.59 298.59 323.97 297.37 320.66C296.17 317.99 292.41 315.52 289.76 317.74C285.67 321.16 285.41 327.01 284.51 331.89C282.31 331.88 280.11 331.89 277.92 331.91C278.82 325.61 281.03 319.33 279.91 312.9C279.65 309.8 277.11 307 273.97 306.71C268.82 308.55 267.81 314.44 266.13 318.95C265.5 311.3 265.99 303.64 266.04 295.99C266.72 268.77 267.06 241.54 267.69 214.32C272.88 213.09 278.21 211.8 282.55 208.54C288.56 204.05 296 202.5 302.84 199.79C309.04 197.38 314.35 193.28 320.14 190.09C327.26 186.16 335.82 186.52 343.09 183C348.39 180.11 353.16 176.34 358.38 173.31C361.55 171.4 365.36 171.4 368.94 171.18C376.98 170.87 385.01 170.32 393.04 169.79C392.71 168.33 392.38 166.88 392.04 165.44C390.08 164.63 387.95 164.07 386.24 162.78C383.62 159.98 383.15 155.97 383.06 152.31C387.08 155.41 387.18 161.99 392.7 163.28C393.57 155.24 392.91 147.06 394.54 139.09Z" fill="#AD3059" stroke="#AD3059" stroke-width="0.5"/>
<path d="M732.729 166C732.759 164.46 734.309 163.88 735.289 163C734.689 170.11 734.719 177.27 735.769 184.34C736.869 180.66 737.709 176.9 738.379 173.12C739.129 173.03 740.629 172.83 741.389 172.74C741.009 178.81 739.059 184.59 737.579 190.44C742.519 188.95 745.539 184.47 746.899 179.72C747.899 177.36 747.859 174.29 750.069 172.66C751.629 177.26 749.659 182.21 747.599 186.33C745.659 190.33 741.289 191.87 737.389 193.27C737.309 194 737.159 195.48 737.079 196.21C753.499 195.68 769.869 194.23 786.279 193.6C800.049 194.02 813.759 196.07 827.179 199.15C834.399 201.96 838.549 209.75 846.109 211.99C851.199 213.45 856.379 214.61 861.449 216.19C860.039 242.07 861.249 267.98 860.879 293.87C856.859 290.48 855.639 285.25 853.009 280.93C851.589 278.36 846.509 278.71 846.239 281.92C846.449 286.49 848.429 290.77 850.349 294.85C851.979 298.46 855.659 300.25 858.699 302.47C860.429 303.37 860.219 305.56 860.799 307.16C856.599 306.22 851.989 305.45 848.819 302.26C845.509 299.01 844.829 293.85 841.189 290.91C839.539 290.62 837.599 291.16 836.969 292.87C835.239 297.01 837.839 301.61 841.219 304.05C846.049 307.85 852.349 308.36 858.069 309.94C860.089 310.08 860.399 312.26 861.169 313.72C850.499 314.87 839.799 315.8 829.119 316.85C824.309 317.25 819.999 319.53 815.619 321.35C801.049 327.42 786.429 333.36 771.879 339.46C763.279 343.27 753.819 344.18 744.769 346.42C733.899 348.49 723.219 351.83 712.109 352.48C698.139 353.56 684.189 354.9 670.209 355.93C658.909 356.76 647.569 356.96 636.279 357.96C636.419 354.5 636.779 350.88 635.559 347.57C634.359 344.9 630.599 342.43 627.949 344.65C623.859 348.07 623.599 353.92 622.699 358.8C620.499 358.79 618.299 358.8 616.109 358.82C617.009 352.52 619.219 346.24 618.099 339.81C617.839 336.71 615.299 333.91 612.159 333.62C607.009 335.46 605.999 341.35 604.319 345.86C603.689 338.21 604.179 330.55 604.229 322.9C604.909 295.68 605.249 268.45 605.879 241.23C611.069 240 616.399 238.71 620.739 235.45C626.749 230.96 634.189 229.41 641.029 226.7C647.229 224.29 652.539 220.19 658.329 217C665.449 213.07 674.009 213.43 681.279 209.91C686.579 207.02 691.349 203.25 696.569 200.22C699.739 198.31 703.549 198.31 707.129 198.09C715.169 197.78 723.199 197.23 731.229 196.7C730.899 195.24 730.569 193.79 730.229 192.35C728.269 191.54 726.139 190.98 724.429 189.69C721.809 186.89 721.339 182.88 721.249 179.22C725.269 182.32 725.369 188.9 730.889 190.19C731.759 182.15 731.099 173.97 732.729 166Z" fill="#AD3059" stroke="#AD3059" stroke-width="0.5"/>
<path d="M904.92 184.7C915.7 182.11 926.33 178.88 937.07 176.11C935.82 190.03 935.02 204 933.99 217.95C933.04 228.94 935.17 240.12 932.72 250.97C930.03 247.97 930.24 243.72 929.93 239.98C929.51 234.31 930.22 228.65 929.97 222.99C930.09 220.99 928.43 219.69 927.38 218.25C926.25 219.49 925.16 220.76 924.06 222.02C924.4 217.72 925.21 213.27 924.03 209.05C923.44 205.61 917.87 206.66 917.98 209.94C916.93 217.25 918.18 224.65 918.01 232C918.31 238.63 917.32 245.99 921.29 251.79C924.46 256.49 926.2 261.95 929.38 266.64C930.99 270.84 929.96 275.53 930.13 279.94C911.28 282.76 892.44 285.62 873.6 288.53C859.9 291.16 845.87 289.68 832.03 290.62C828.62 291.04 825.88 293.32 823.02 295.02C814.55 300.77 804.4 305.09 793.98 304.11C784.75 303.48 775.5 303.2 766.28 302.51C772.33 293.24 775.35 282.04 775.11 271.01C774.99 266.49 772.24 260.65 766.96 261C763.12 260.81 760.94 264.71 760.69 268.07C759.44 277.11 759.63 286.77 754.91 294.92C752.88 298.83 749.32 301.55 745.66 303.84C744.72 277.57 745 251.26 744.34 224.98C743.98 216.9 744.79 208.6 742.33 200.77C749.88 200.79 757.47 200.28 764.98 201.24C770.08 201.86 775.11 203.14 780.27 203.29C784.24 203.2 788.16 202.41 792.09 201.88C816.15 198.46 840.24 195.21 864.3 191.73C862.47 190.02 860.64 188.31 858.81 186.61C860.88 187.03 862.97 187.47 865.05 187.91C864.04 186.05 863.06 184.19 862.14 182.3C864.29 183.67 866.18 185.38 867.81 187.36C869.83 185.47 872 183.75 874.32 182.25C873.56 183.93 872.74 185.59 871.96 187.26C874.48 187.06 877.01 186.88 879.55 186.72C877.86 187.8 876.17 188.89 874.49 189.98C884.66 188.39 894.79 186.57 904.92 184.7Z" fill="#AD3059" stroke="#AD3059" stroke-width="0.5"/>
<path d="M305.59 205.59C316.37 203 327 199.77 337.74 197C336.49 210.92 335.69 224.89 334.66 238.84C333.71 249.83 335.84 261.01 333.39 271.86C330.7 268.86 330.91 264.61 330.6 260.87C330.18 255.2 330.89 249.54 330.64 243.88C330.76 241.88 329.1 240.58 328.05 239.14C326.92 240.38 325.83 241.65 324.73 242.91C325.07 238.61 325.88 234.16 324.7 229.94C324.11 226.5 318.54 227.55 318.65 230.83C317.6 238.14 318.85 245.54 318.68 252.89C318.98 259.52 317.99 266.88 321.96 272.68C325.13 277.38 326.87 282.84 330.05 287.53C331.66 291.73 330.63 296.42 330.8 300.83C311.95 303.65 293.11 306.51 274.27 309.42C260.57 312.05 246.54 310.57 232.7 311.51C229.29 311.93 226.55 314.21 223.69 315.91C215.22 321.66 205.07 325.98 194.65 325C185.42 324.37 176.17 324.09 166.95 323.4C173 314.13 176.02 302.93 175.78 291.9C175.66 287.38 172.91 281.54 167.63 281.89C163.79 281.7 161.61 285.6 161.36 288.96C160.11 298 160.3 307.66 155.58 315.81C153.55 319.72 149.99 322.44 146.33 324.73C145.39 298.46 145.67 272.15 145.01 245.87C144.65 237.79 145.46 229.49 143 221.66C150.55 221.68 158.14 221.17 165.65 222.13C170.75 222.75 175.78 224.03 180.94 224.18C184.91 224.09 188.83 223.3 192.76 222.77C216.82 219.35 240.91 216.1 264.97 212.62C263.14 210.91 261.31 209.2 259.48 207.5C261.55 207.92 263.64 208.36 265.72 208.8C264.71 206.94 263.73 205.08 262.81 203.19C264.96 204.56 266.85 206.27 268.48 208.25C270.5 206.36 272.67 204.64 274.99 203.14C274.23 204.82 273.41 206.48 272.63 208.15C275.15 207.95 277.68 207.77 280.22 207.61C278.53 208.69 276.84 209.78 275.16 210.87C285.33 209.28 295.46 207.46 305.59 205.59Z" fill="#AD3059" stroke="#AD3059" stroke-width="0.5"/>
<path d="M1070.59 141.59C1081.37 139 1092 135.77 1102.74 133C1101.49 146.92 1100.69 160.89 1099.66 174.84C1098.71 185.83 1100.84 197.01 1098.39 207.86C1095.7 204.86 1095.91 200.61 1095.6 196.87C1095.18 191.2 1095.89 185.54 1095.64 179.88C1095.76 177.88 1094.1 176.58 1093.05 175.14C1091.92 176.38 1090.83 177.65 1089.73 178.91C1090.07 174.61 1090.88 170.16 1089.7 165.94C1089.11 162.5 1083.54 163.55 1083.65 166.83C1082.6 174.14 1083.85 181.54 1083.68 188.89C1083.98 195.52 1082.99 202.88 1086.96 208.68C1090.13 213.38 1091.87 218.84 1095.05 223.53C1096.66 227.73 1095.63 232.42 1095.8 236.83C1076.95 239.65 1058.11 242.51 1039.27 245.42C1025.57 248.05 1011.54 246.57 997.7 247.51C994.29 247.93 991.55 250.21 988.69 251.91C980.22 257.66 970.07 261.98 959.65 261C950.42 260.37 941.17 260.09 931.95 259.4C938 250.13 941.02 238.93 940.78 227.9C940.66 223.38 937.91 217.54 932.63 217.89C928.79 217.7 926.61 221.6 926.36 224.96C925.11 234 925.3 243.66 920.58 251.81C918.55 255.72 914.99 258.44 911.33 260.73C910.39 234.46 910.67 208.15 910.01 181.87C909.65 173.79 910.46 165.49 908 157.66C915.55 157.68 923.14 157.17 930.65 158.13C935.75 158.75 940.78 160.03 945.94 160.18C949.91 160.09 953.83 159.3 957.76 158.77C981.82 155.35 1005.91 152.1 1029.97 148.62C1028.14 146.91 1026.31 145.2 1024.48 143.5C1026.55 143.92 1028.64 144.36 1030.72 144.8C1029.71 142.94 1028.73 141.08 1027.81 139.19C1029.96 140.56 1031.85 142.27 1033.48 144.25C1035.5 142.36 1037.67 140.64 1039.99 139.14C1039.23 140.82 1038.41 142.48 1037.63 144.15C1040.15 143.95 1042.68 143.77 1045.22 143.61C1043.53 144.69 1041.84 145.78 1040.16 146.87C1050.33 145.28 1060.46 143.46 1070.59 141.59Z" fill="#AD3059" stroke="#AD3059" stroke-width="0.5"/>
<path d="M1023.59 188.59C1034.37 186 1045 182.77 1055.74 180C1054.49 193.92 1053.69 207.89 1052.66 221.84C1051.71 232.83 1053.84 244.01 1051.39 254.86C1048.7 251.86 1048.91 247.61 1048.6 243.87C1048.18 238.2 1048.89 232.54 1048.64 226.88C1048.76 224.88 1047.1 223.58 1046.05 222.14C1044.92 223.38 1043.83 224.65 1042.73 225.91C1043.07 221.61 1043.88 217.16 1042.7 212.94C1042.11 209.5 1036.54 210.55 1036.65 213.83C1035.6 221.14 1036.85 228.54 1036.68 235.89C1036.98 242.52 1035.99 249.88 1039.96 255.68C1043.13 260.38 1044.87 265.84 1048.05 270.53C1049.66 274.73 1048.63 279.42 1048.8 283.83C1029.95 286.65 1011.11 289.51 992.27 292.42C978.57 295.05 964.54 293.57 950.7 294.51C947.29 294.93 944.55 297.21 941.69 298.91C933.22 304.66 923.07 308.98 912.65 308C903.42 307.37 894.17 307.09 884.95 306.4C891 297.13 894.02 285.93 893.78 274.9C893.66 270.38 890.91 264.54 885.63 264.89C881.79 264.7 879.61 268.6 879.36 271.96C878.11 281 878.3 290.66 873.58 298.81C871.55 302.72 867.99 305.44 864.33 307.73C863.39 281.46 863.67 255.15 863.01 228.87C862.65 220.79 863.46 212.49 861 204.66C868.55 204.68 876.14 204.17 883.65 205.13C888.75 205.75 893.78 207.03 898.94 207.18C902.91 207.09 906.83 206.3 910.76 205.77C934.82 202.35 958.91 199.1 982.97 195.62C981.14 193.91 979.31 192.2 977.48 190.5C979.55 190.92 981.64 191.36 983.72 191.8C982.71 189.94 981.73 188.08 980.81 186.19C982.96 187.56 984.85 189.27 986.48 191.25C988.5 189.36 990.67 187.64 992.99 186.14C992.23 187.82 991.41 189.48 990.63 191.15C993.15 190.95 995.68 190.77 998.22 190.61C996.53 191.69 994.84 192.78 993.16 193.87C1003.33 192.28 1013.46 190.46 1023.59 188.59Z" fill="#AD3059" stroke="#AD3059" stroke-width="0.5"/>
<path d="M1762.81 170.575C1773.6 168.291 1784.25 165.443 1795 163C1793.75 175.275 1792.95 187.595 1791.92 199.897C1790.96 209.588 1793.1 219.447 1790.64 229.016C1787.95 226.37 1788.16 222.622 1787.85 219.324C1787.43 214.324 1788.14 209.333 1787.89 204.341C1788.01 202.578 1786.35 201.431 1785.3 200.161C1784.17 201.255 1783.07 202.375 1781.97 203.486C1782.31 199.694 1783.12 195.77 1781.94 192.048C1781.35 189.015 1775.77 189.941 1775.88 192.833C1774.83 199.279 1776.08 205.805 1775.91 212.287C1776.21 218.134 1775.22 224.624 1779.2 229.739C1782.37 233.883 1784.12 238.698 1787.3 242.834C1788.91 246.538 1787.88 250.674 1788.05 254.563C1769.18 257.05 1750.31 259.572 1731.45 262.138C1717.73 264.457 1703.68 263.152 1689.82 263.981C1686.41 264.351 1683.66 266.362 1680.8 267.861C1672.32 272.932 1662.15 276.742 1651.72 275.877C1642.48 275.322 1633.21 275.075 1623.98 274.466C1630.04 266.292 1633.06 256.415 1632.82 246.688C1632.7 242.702 1629.95 237.552 1624.66 237.861C1620.82 237.693 1618.63 241.132 1618.38 244.095C1617.13 252.067 1617.32 260.586 1612.6 267.773C1610.56 271.221 1607 273.62 1603.33 275.639C1602.39 252.473 1602.67 229.271 1602.01 206.096C1601.65 198.971 1602.46 191.651 1600 184.747C1607.56 184.764 1615.16 184.314 1622.68 185.161C1627.79 185.708 1632.82 186.837 1637.99 186.969C1641.97 186.889 1645.89 186.193 1649.83 185.725C1673.92 182.709 1698.04 179.843 1722.13 176.775C1720.3 175.267 1718.47 173.759 1716.64 172.259C1718.71 172.63 1720.8 173.018 1722.88 173.406C1721.87 171.766 1720.89 170.125 1719.97 168.459C1722.12 169.667 1724.02 171.175 1725.65 172.921C1727.67 171.254 1729.84 169.737 1732.17 168.415C1731.41 169.896 1730.58 171.36 1729.8 172.833C1732.33 172.656 1734.86 172.498 1737.4 172.356C1735.71 173.309 1734.02 174.27 1732.34 175.231C1742.52 173.829 1752.66 172.224 1762.81 170.575Z" fill="#AD3059" stroke="#AD3059" stroke-width="0.5"/>
<path d="M533 189.3C539.3 189.24 546.15 186.73 552.03 190.03C557.88 192.76 563.38 196.69 569.98 197.37C580.53 198.7 591.09 200.04 601.64 201.49C611.37 202.98 621.23 202.22 631.02 202.54C640.43 202.44 649.92 203.43 659.27 201.95C657.67 198.69 655.33 195.9 652.54 193.62C654.62 194.08 656.71 194.54 658.81 195C657.79 193.11 656.79 191.21 655.87 189.28C657.99 190.74 659.91 192.47 661.63 194.4C663.67 192.46 665.9 190.74 668.31 189.26C667.5 190.94 666.66 192.61 665.83 194.29C668.37 194.12 670.91 193.97 673.47 193.84C669.98 195.76 666.46 197.9 664.36 201.42C674.59 200.67 684.74 198.99 694.98 198.46C706.03 198.64 717.04 199.6 728.08 200.16C724.73 206.97 725.29 214.71 724.88 222.07C723.75 245.83 722.87 269.6 722.12 293.38C717.8 291.54 713.49 289.69 709.16 287.88C707.27 280.43 705.9 272.31 700.7 266.32C698.25 263.12 692.88 263.33 690.69 266.69C688.28 270.42 689.13 275.14 689.3 279.34C686.31 278.06 683.35 276.32 680.01 276.32C632.69 278.53 585.37 281.26 538.15 285.21C538.13 282.11 538.11 279.02 538.09 275.94C542.68 274.55 548.52 273.67 550.81 268.84C552.77 264.13 553.27 258.97 554.34 254.02C555.32 247.39 557.59 240.78 556.79 234.03C555.93 230.72 550.6 231.79 550.42 235.04C548.49 244.53 547.72 254.31 544.43 263.49C544.86 246.27 547.23 229.13 547.92 211.93C548.47 206.91 539.89 206.23 539.25 210.98C538 221.58 538.04 232.28 537.23 242.92C536.72 248.57 537.93 254.55 535.58 259.92C534.38 250.95 533.61 241.93 532.86 232.92C531.63 218.41 532.37 203.83 533 189.3Z" fill="#AD3059" stroke="#AD3059" stroke-width="0.5"/>
<path d="M68.98 180C70.46 180.01 72.55 180.39 72.74 182.21C73.53 188.51 72.3 194.89 73.12 201.21C74.97 198.68 75.26 195.55 75.56 192.54C76.61 192.58 77.66 192.64 78.71 192.71C78.65 194.87 78.7 197.06 78.28 199.2C78.15 201.97 74.85 202.25 72.94 203.43C73 204.85 73.05 206.3 73.11 207.75C80.1 208.44 87.06 209.31 94.03 210.14C111.88 211.92 129.36 216.15 147.01 219.28C160.08 222.72 172.77 227.5 185.67 231.52C188.69 232.49 191.9 231.98 194.95 231.41C205.25 229.39 215.62 227.77 225.92 225.81C232.69 224.47 239.61 225.14 246.45 225.24C245.25 224.18 244.05 223.13 242.85 222.08C245 222.51 247.14 222.95 249.29 223.4C248.48 221.55 247.65 219.7 246.88 217.85C248.79 219.42 250.64 221.07 252.45 222.78C254.39 221.08 256.43 219.51 258.55 218.05C257.82 219.72 257.08 221.42 256.33 223.09C260.82 222.27 265.35 221.47 269.66 219.89C275.29 217.97 279.97 214.18 285.24 211.53C281.57 249.31 281.6 287.31 280.57 325.22C279.68 325.16 277.9 325.04 277.01 324.98C274.84 309.82 273.47 294.45 274.48 279.14C275.11 268.16 275.11 257.17 275.3 246.18C275.29 241.15 274.85 235.68 271.64 231.56C270.21 229.45 266.87 229.52 265.45 231.59C263.17 234.6 262.63 238.51 262.47 242.18C262.29 269.89 262.64 297.61 262.75 325.32C236.72 323.13 210.6 322.1 184.59 319.78C190.32 317.38 196.52 316.72 202.63 315.96C193.13 311.71 182.27 311.57 172.44 314.75C178.06 308.1 186.2 304.54 194.47 302.46C186.94 300.16 178.97 301.2 171.71 303.91C174.11 298.94 177.69 294.74 181.44 290.75C173.26 292.45 166.15 297.73 162.2 305.11C160.29 301.48 158.35 297.69 155.05 295.13C152.57 293.11 149.44 292.23 146.46 291.26C149.97 295.6 153.31 300.13 155.36 305.37C149.23 303.03 142.88 301.02 136.24 300.95C140.37 303.44 144.84 305.49 148.41 308.8C150.9 311.07 152.59 314.01 154.24 316.9C145.26 314.37 136.03 312.65 126.69 312.47C130.49 314.03 134.37 315.41 138.21 316.89C92.47 314.46 46.73 311.91 1 309.32V206.56C6.93 204.86 12.96 203.55 18.92 201.94C25.56 200.15 32.32 202.38 38.96 203.08C48.75 204.24 58.47 206.18 68.33 206.78C66.84 204.93 65.03 203.39 63.45 201.65C63.49 200.52 64 199.47 64.3 198.42C65.36 199.69 66.42 200.99 67.46 202.29C67.65 196.94 67.74 191.59 67.79 186.24C67.94 184.13 67.73 181.82 68.98 180Z" fill="#AD3059" stroke="#AD3059" stroke-width="0.5"/>
<path d="M531.99 146C533.797 146.011 536.348 146.424 536.58 148.403C537.545 155.253 536.043 162.189 537.044 169.061C539.303 166.31 539.657 162.907 540.023 159.634C541.305 159.678 542.586 159.743 543.868 159.819C543.795 162.167 543.856 164.549 543.343 166.875C543.185 169.887 539.156 170.191 536.824 171.474C536.898 173.018 536.959 174.595 537.032 176.171C545.565 176.922 554.062 177.867 562.571 178.77C584.362 180.705 605.702 185.304 627.249 188.707C643.205 192.448 658.697 197.645 674.445 202.015C678.132 203.07 682.051 202.516 685.774 201.896C698.348 199.7 711.008 197.938 723.582 195.807C731.847 194.35 740.295 195.079 748.645 195.187C747.18 194.035 745.715 192.893 744.25 191.752C746.875 192.219 749.488 192.698 752.112 193.187C751.123 191.175 750.11 189.164 749.17 187.153C751.502 188.86 753.76 190.654 755.97 192.513C758.338 190.664 760.829 188.957 763.417 187.37C762.526 189.186 761.622 191.034 760.707 192.85C766.188 191.958 771.718 191.088 776.98 189.371C783.853 187.283 789.566 183.162 796 180.281C791.52 221.358 791.556 262.673 790.299 303.891C789.212 303.826 787.039 303.696 785.953 303.63C783.304 287.148 781.631 270.436 782.864 253.791C783.633 241.852 783.633 229.904 783.865 217.955C783.853 212.486 783.316 206.538 779.397 202.059C777.651 199.765 773.574 199.841 771.84 202.092C769.057 205.364 768.398 209.615 768.202 213.606C767.983 243.733 768.41 273.872 768.544 304C736.767 301.619 704.88 300.499 673.127 297.977C680.122 295.367 687.691 294.65 695.15 293.823C683.552 289.202 670.294 289.05 658.294 292.508C665.155 285.277 675.092 281.407 685.188 279.145C675.995 276.645 666.266 277.775 657.403 280.722C660.333 275.318 664.703 270.752 669.281 266.414C659.295 268.262 650.615 274.003 645.793 282.027C643.461 278.08 641.093 273.959 637.064 271.176C634.037 268.979 630.215 268.023 626.577 266.968C630.862 271.687 634.94 276.612 637.443 282.309C629.959 279.765 622.207 277.58 614.101 277.504C619.143 280.211 624.6 282.44 628.958 286.039C631.998 288.507 634.061 291.703 636.075 294.845C625.113 292.095 613.845 290.224 602.442 290.029C607.081 291.725 611.818 293.225 616.506 294.834C560.667 292.192 504.827 289.42 449 286.604V174.878C456.239 173.029 463.601 171.605 470.877 169.854C478.983 167.908 487.235 170.333 495.342 171.094C507.293 172.355 519.159 174.464 531.196 175.117C529.377 173.105 527.168 171.431 525.239 169.539C525.288 168.31 525.91 167.169 526.277 166.027C527.571 167.408 528.865 168.821 530.134 170.235C530.366 164.418 530.476 158.601 530.537 152.784C530.72 150.49 530.464 147.979 531.99 146Z" fill="#AD3059" stroke="#AD3059" stroke-width="0.5"/>
<path d="M1359.98 163C1361.46 163.01 1363.55 163.39 1363.74 165.21C1364.53 171.51 1363.3 177.89 1364.12 184.21C1365.97 181.68 1366.26 178.55 1366.56 175.54C1367.61 175.58 1368.66 175.64 1369.71 175.71C1369.65 177.87 1369.7 180.06 1369.28 182.2C1369.15 184.97 1365.85 185.25 1363.94 186.43C1364 187.85 1364.05 189.3 1364.11 190.75C1371.1 191.44 1378.06 192.31 1385.03 193.14C1402.88 194.92 1420.36 199.15 1438.01 202.28C1451.08 205.72 1463.77 210.5 1476.67 214.52C1479.69 215.49 1482.9 214.98 1485.95 214.41C1496.25 212.39 1506.62 210.77 1516.92 208.81C1523.69 207.47 1530.61 208.14 1537.45 208.24C1536.25 207.18 1535.05 206.13 1533.85 205.08C1536 205.51 1538.14 205.95 1540.29 206.4C1539.48 204.55 1538.65 202.7 1537.88 200.85C1539.79 202.42 1541.64 204.07 1543.45 205.78C1545.39 204.08 1547.43 202.51 1549.55 201.05C1548.82 202.72 1548.08 204.42 1547.33 206.09C1551.82 205.27 1556.35 204.47 1560.66 202.89C1566.29 200.97 1570.97 197.18 1576.24 194.53C1572.57 232.31 1572.6 270.31 1571.57 308.22C1570.68 308.16 1568.9 308.04 1568.01 307.98C1565.84 292.82 1564.47 277.45 1565.48 262.14C1566.11 251.16 1566.11 240.17 1566.3 229.18C1566.29 224.15 1565.85 218.68 1562.64 214.56C1561.21 212.45 1557.87 212.52 1556.45 214.59C1554.17 217.6 1553.63 221.51 1553.47 225.18C1553.29 252.89 1553.64 280.61 1553.75 308.32C1527.72 306.13 1501.6 305.1 1475.59 302.78C1481.32 300.38 1487.52 299.72 1493.63 298.96C1484.13 294.71 1473.27 294.57 1463.44 297.75C1469.06 291.1 1477.2 287.54 1485.47 285.46C1477.94 283.16 1469.97 284.2 1462.71 286.91C1465.11 281.94 1468.69 277.74 1472.44 273.75C1464.26 275.45 1457.15 280.73 1453.2 288.11C1451.29 284.48 1449.35 280.69 1446.05 278.13C1443.57 276.11 1440.44 275.23 1437.46 274.26C1440.97 278.6 1444.31 283.13 1446.36 288.37C1440.23 286.03 1433.88 284.02 1427.24 283.95C1431.37 286.44 1435.84 288.49 1439.41 291.8C1441.9 294.07 1443.59 297.01 1445.24 299.9C1436.26 297.37 1427.03 295.65 1417.69 295.47C1421.49 297.03 1425.37 298.41 1429.21 299.89C1383.47 297.46 1337.73 294.91 1292 292.32V189.56C1297.93 187.86 1303.96 186.55 1309.92 184.94C1316.56 183.15 1323.32 185.38 1329.96 186.08C1339.75 187.24 1349.47 189.18 1359.33 189.78C1357.84 187.93 1356.03 186.39 1354.45 184.65C1354.49 183.52 1355 182.47 1355.3 181.42C1356.36 182.69 1357.42 183.99 1358.46 185.29C1358.65 179.94 1358.74 174.59 1358.79 169.24C1358.94 167.13 1358.73 164.82 1359.98 163Z" fill="#AD3059" stroke="#AD3059" stroke-width="0.5"/>
<path d="M1889 232H1V355H1889V232Z" fill="#AD3059"/>
<path d="M1863.33 98.8087C1874.47 98.8087 1885.61 98.8087 1896.75 98.8087C1898.58 98.8087 1898.89 100.918 1899.65 102.441" stroke="#AD3059" stroke-width="154" stroke-linecap="round"/>
<path d="M124.191 249.543C111.708 248.156 101.318 235.733 87.804 234.382C85.511 234.153 70.823 227.502 68.937 225.959C63.841 221.79 58.282 216.434 54.449 210.798C48.778 202.458 52.931 192.031 49.058 182.833C42.9755 168.386 51.914 152.141 41.6463 138.023C38.3669 133.514 33.8993 121.532 33.2233 116.123C32.765 112.457 26.1566 105.022 24.1265 100.962" stroke="#AD3059" stroke-width="154" stroke-linecap="round"/>
<path d="M8.50902 38.8649L7.74072 37.3284" stroke="#AD3059" stroke-width="9" stroke-linecap="round"/>
<path d="M10.8141 38.8649C10.8141 35.7282 9.44483 34.8473 6.58853 34.2126C5.48603 33.9676 1.93683 32.2082 1.59473 31.1821" stroke="#AD3059" stroke-width="9" stroke-linecap="round"/>
<path d="M1.59473 32.7187C5.35553 32.7187 6.88023 32.6423 9.27753 29.6456" stroke="#AD3059" stroke-width="9" stroke-linecap="round"/>
<path d="M12.3506 37.3284C17.83 31.1641 4.45793 31.1821 1.59473 31.1821" stroke="#AD3059" stroke-width="9" stroke-linecap="round"/>
<path d="M2.65679 27.2863C2.72729 27.2687 2.88149 26.4101 2.88839 26.2828C2.90749 25.9281 2.91759 25.8551 2.57959 25.7424" stroke="#AD3059" stroke-width="8" stroke-linecap="round"/>
<path d="M10.8396 26.2055C10.217 26.1277 9.63077 25.8196 8.99977 25.8196C8.70667 25.8196 8.41367 25.8196 8.12057 25.8196C7.46847 25.8196 7.02717 25.4336 6.36227 25.4336C5.29787 25.4336 4.22847 25.4336 3.19727 25.4336" stroke="#AD3059" stroke-width="8" stroke-linecap="round"/>
<path d="M1.57617 22.5774H1.73057" stroke="#AD3059" stroke-linecap="round"/>
<path d="M1.26709 22.5774H1.57589" stroke="#AD3059" stroke-linecap="round"/>
<path d="M1.42139 22.8861C1.76159 22.8483 1.46009 22.539 1.42139 22.423" stroke="#AD3059" stroke-linecap="round"/>
<path d="M13.8501 24.5073H16.7835" stroke="#AD3059" stroke-linecap="round"/>
<path d="M1.03564 22.6545H1.49884" stroke="#AD3059" stroke-linecap="round"/>
<path d="M15.1885 27.7817C19.0626 27.5049 22.4567 26.1833 26.4238 26.3302C28.4413 26.4049 30.2312 28.0741 32.0952 28.7224C33.3569 29.1613 34.8957 29.4695 35.9926 30.2007" stroke="#AD3059" stroke-linecap="round"/>
<path d="M13.5298 25.3381C14.6281 25.4754 15.8703 26.6671 16.9751 26.6671C18.103 26.6671 19.2594 26.742 20.3713 26.9008C21.0839 27.0027 22.1398 27.4208 22.8815 27.0116C23.7425 26.5366 24.5828 26.8272 25.4901 26.6178C26.4465 26.3971 27.2447 26.2241 28.2464 26.2241C29.4539 26.2241 30.3614 26.5593 31.5072 26.6548C33.8901 26.8533 36.2476 26.759 38.6317 27.0608C39.9611 27.2291 41.1852 27.553 42.5446 27.553C43.377 27.553 44.148 28.0929 44.944 28.3036C47.583 29.0021 49.95 30.5751 52.388 31.7613C53.746 32.4216 55.017 32.695 56.228 33.5332C57.175 34.1891 58.62 34.4191 59.747 34.4191C60.958 34.4191 62.85 34.5469 63.844 35.342C65.286 36.4953 66.382 37.8427 68.016 38.7258C70.972 40.3238 72.905 42.9476 74.882 45.715" stroke="#AD3059" stroke-width="7" stroke-linecap="round"/>
<path d="M1.03545 22.5773C1.10775 22.8662 2.46485 22.7317 2.76815 22.7317C3.10725 22.7317 2.66175 22.5943 2.54505 22.573C2.33145 22.5342 2.10945 22.4342 1.88465 22.4229C1.74965 22.4162 0.478048 22.4207 0.430748 22.5387C0.420748 22.5639 1.30315 22.356 1.32715 22.3543C1.87135 22.3161 2.41975 22.2686 2.96535 22.2686" stroke="#AD3059" stroke-linecap="round"/>
<path d="M1889 335H1V527H1889V335Z" fill="#AD3059"/>
</g>
<defs>
<clipPath id="clip0_8_493">
<rect width="1889" height="547" fill="white"/>
</clipPath>
</defs>
</svg>
